<?xml version="1.0" encoding="UTF-8"?>
<svg width="1080px" height="1080px" viewBox="0 0 1080 1080" xmlns="http://www.w3.org/2000/svg" xmlns:xlink="http://www.w3.org/1999/xlink" version="1.1">
 <!-- Generated by Pixelmator Pro 2.0 -->
 <g id="New-Group">
  <defs>
   <linearGradient id="linear-gradient" gradientUnits="userSpaceOnUse" x1="237.168" y1="672.937" x2="360.843" y2="672.937">
    <stop offset="0" stop-color="#64214e" stop-opacity="1"/>
    <stop offset="1" stop-color="#412476" stop-opacity="1"/>
   </linearGradient>
  </defs>
  <path id="Path" d="M360.835 654.014 C359.652 616.825 327.062 614.144 313.225 613.921 292.729 613.591 256.925 637.56 248.074 649.002 228.588 674.196 233.248 717.84 278.144 731.694 292.977 736.271 361.661 679.979 360.835 654.014 Z" fill-opacity="1" fill="url(#linear-gradient)" stroke="none"/>
  <defs>
   <linearGradient id="linear-gradient-1" gradientUnits="userSpaceOnUse" x1="390.203" y1="655.569" x2="623.45" y2="669.353">
    <stop offset="0" stop-color="#a4479a" stop-opacity="1"/>
    <stop offset="1" stop-color="#602d94" stop-opacity="1"/>
   </linearGradient>
  </defs>
  <path id="Path-1" d="M608.909 641.485 C591.319 609.375 530.435 510.991 488.631 523.712 471.42 528.95 423.47 520.373 478.608 704.13 486.806 731.452 546.083 816.231 593.875 799.35 644.259 781.554 621.794 665.005 608.909 641.485 Z" fill-opacity="1" fill="url(#linear-gradient-1)" stroke="none"/>
  <defs>
   <linearGradient id="linear-gradient-2" gradientUnits="userSpaceOnUse" x1="136.416" y1="902.84" x2="279.5" y2="775.243">
    <stop offset="0" stop-color="#a4479a" stop-opacity="1"/>
    <stop offset="1" stop-color="#412476" stop-opacity="1"/>
   </linearGradient>
  </defs>
  <path id="Path-2" d="M270.626 739.211 C219.422 739.211 167.645 789.361 167.889 841.949 168.151 898.621 336.619 844.227 363.341 776.798 382.206 729.195 321.831 739.211 270.626 739.211 Z" fill-opacity="1" fill="url(#linear-gradient-2)" stroke="none"/>
  <defs>
   <linearGradient id="linear-gradient-3" gradientUnits="userSpaceOnUse" x1="962.128" y1="463.425" x2="607.05" y2="745.784">
    <stop offset="0" stop-color="#7e518c" stop-opacity="1"/>
    <stop offset="1" stop-color="#57224e" stop-opacity="1"/>
   </linearGradient>
  </defs>
  <path id="Path-3" d="M874.524 724.176 C987.184 651.045 956.953 621.955 934.664 601.392 890.088 560.27 801.458 629.799 779.304 643.991 729.115 676.141 713.268 723.612 734.2 751.74 767.685 796.738 853.642 737.732 874.524 724.176 Z" fill-opacity="1" fill="url(#linear-gradient-3)" stroke="none"/>
  <defs>
   <linearGradient id="linear-gradient-4" gradientUnits="userSpaceOnUse" x1="835.257" y1="528.866" x2="608.646" y2="731.737">
    <stop offset="0" stop-color="#7e518c" stop-opacity="1"/>
    <stop offset="1" stop-color="#5d2a75" stop-opacity="1"/>
   </linearGradient>
  </defs>
  <path id="Path-4" d="M744.223 669.049 C773.723 557.946 785.269 535.879 714.153 521.206 634.97 504.87 609.745 617.418 603.898 651.508 579.434 794.131 638.005 776.938 661.531 776.798 720.547 776.449 727.857 730.682 744.223 669.049 Z" fill-opacity="1" fill="url(#linear-gradient-4)" stroke="none"/>
  <defs>
   <linearGradient id="linear-gradient-5" gradientUnits="userSpaceOnUse" x1="567.489" y1="237.858" x2="446.007" y2="631.55">
    <stop offset="0" stop-color="#7e518c" stop-opacity="1"/>
    <stop offset="1" stop-color="#5d2a75" stop-opacity="1"/>
   </linearGradient>
  </defs>
  <path id="Path-5" d="M568.817 415.963 C550.181 331.082 516.049 297.712 473.596 313.225 437.201 326.525 442.132 388.659 453.55 430.998 464 469.747 481.299 572.669 526.218 558.794 572.094 544.622 593.392 527.897 568.817 415.963 Z" fill-opacity="1" fill="url(#linear-gradient-5)" stroke="none"/>
  <defs>
   <linearGradient id="linear-gradient-6" gradientUnits="userSpaceOnUse" x1="586.291" y1="442.369" x2="325.424" y2="317.743">
    <stop offset="0" stop-color="#7e518c" stop-opacity="1"/>
    <stop offset="1" stop-color="#692855" stop-opacity="1"/>
   </linearGradient>
  </defs>
  <path id="Path-6" d="M523.712 268.121 C529.569 241.291 538.661 196.488 498.654 175.406 446.644 147.999 396.131 273.914 388.399 293.179 334.042 428.618 395.843 456.864 418.469 453.55 460.534 447.389 503.993 358.461 523.712 268.121 Z" fill-opacity="1" fill="url(#linear-gradient-6)" stroke="none"/>
  <defs>
   <linearGradient id="linear-gradient-7" gradientUnits="userSpaceOnUse" x1="709.078" y1="35.61" x2="492.801" y2="158.685">
    <stop offset="0" stop-color="#7e518c" stop-opacity="1"/>
    <stop offset="1" stop-color="#5d2a75" stop-opacity="1"/>
   </linearGradient>
  </defs>
  <path id="Path-7" d="M643.991 72.668 C646.733 42.346 617.14 28.786 593.875 30.07 566.352 31.588 488.206 96.236 483.619 127.796 479.241 157.926 490.13 167.189 516.195 182.923 554.405 205.99 640.617 109.966 643.991 72.668 Z" fill-opacity="1" fill="url(#linear-gradient-7)" stroke="none"/>
  <defs>
   <linearGradient id="linear-gradient-8" gradientUnits="userSpaceOnUse" x1="880.783" y1="275.356" x2="574.562" y2="565.532">
    <stop offset="0" stop-color="#a4479a" stop-opacity="1"/>
    <stop offset="1" stop-color="#251440" stop-opacity="1"/>
   </linearGradient>
  </defs>
  <path id="Path-8" d="M819.397 523.712 C836.959 504.404 915.883 419.439 849.466 400.928 822.643 393.452 784.775 407.667 734.2 458.561 705.933 487.006 669.671 536.859 694.107 563.805 719.242 591.523 773.893 573.74 819.397 523.712 Z" fill-opacity="1" fill="url(#linear-gradient-8)" stroke="none"/>
  <defs>
   <linearGradient id="linear-gradient-9" gradientUnits="userSpaceOnUse" x1="930.55" y1="877.962" x2="339.874" y2="882.325">
    <stop offset="0" stop-color="#a4479a" stop-opacity="1"/>
    <stop offset="1" stop-color="#412476" stop-opacity="1"/>
   </linearGradient>
  </defs>
  <path id="Path-9" d="M749.234 914.617 C733.971 861.406 664.94 765.182 611.415 779.304 558.422 793.286 580.351 869.469 596.38 914.617 624.753 994.528 657.148 1061.365 721.671 1049.93 781.585 1039.313 771.782 993.224 749.234 914.617 Z" fill-opacity="1" fill="url(#linear-gradient-9)" stroke="none"/>
  <defs>
   <radialGradient id="radial-gradient" gradientUnits="userSpaceOnUse" cx="278.146" cy="457.263" r="244.854" fx="278.146" fy="457.263">
    <stop offset="0" stop-color="#a4479a" stop-opacity="1"/>
    <stop offset="0.813" stop-color="#572d93" stop-opacity="1"/>
    <stop offset="1" stop-color="#412476" stop-opacity="1"/>
   </radialGradient>
  </defs>
  <path id="Path-10" d="M240.557 558.794 C224.898 500.509 197.283 453.503 165.383 456.056 149.612 457.318 122.514 473.547 125.29 526.218 130.173 618.852 172.444 706.72 182.923 709.142 253.573 725.464 262.311 639.763 240.557 558.794 Z" fill-opacity="1" fill="url(#radial-gradient)" stroke="none"/>
  <defs>
   <linearGradient id="linear-gradient-10" gradientUnits="userSpaceOnUse" x1="294.93" y1="717.928" x2="586.665" y2="559.128">
    <stop offset="0" stop-color="#a4479a" stop-opacity="1"/>
    <stop offset="0.505" stop-color="#5b2147" stop-opacity="1"/>
    <stop offset="1" stop-color="#412476" stop-opacity="1"/>
   </linearGradient>
  </defs>
  <path id="Path-11" d="M473.596 613.921 C473.875 579.324 482.268 446.877 410.951 446.032 372.586 445.578 353.119 511.915 350.812 616.427 350.048 651.016 357.642 731.645 420.974 739.211 456.702 743.48 473.141 670.489 473.596 613.921 Z" fill-opacity="1" fill="url(#linear-gradient-10)" stroke="none"/>
  <defs>
   <linearGradient id="linear-gradient-11" gradientUnits="userSpaceOnUse" x1="594.95" y1="753.344" x2="900.09" y2="764.068">
    <stop offset="0" stop-color="#a4479a" stop-opacity="1"/>
    <stop offset="1" stop-color="#412476" stop-opacity="1"/>
   </linearGradient>
  </defs>
  <path id="Path-12" d="M929.652 902.088 C954.23 873.778 908.47 801.831 836.937 776.798 810.813 767.656 761.824 737.672 714.153 769.281 691.085 784.576 720.437 831.27 724.176 834.432 753.022 858.819 891.502 946.03 929.652 902.088 Z" fill-opacity="1" fill="url(#linear-gradient-11)" stroke="none"/>
  <defs>
   <linearGradient id="linear-gradient-12" gradientUnits="userSpaceOnUse" x1="711.301" y1="669.355" x2="299.879" y2="838.6">
    <stop offset="0" stop-color="#a4479a" stop-opacity="1"/>
    <stop offset="1" stop-color="#57224e" stop-opacity="1"/>
   </linearGradient>
  </defs>
  <path id="Path-13" d="M704.13 796.845 C706.396 747.348 693.956 740.064 603.898 741.717 461.251 744.335 475.703 756.761 451.044 808.121 439.963 831.201 496.983 849.181 563.805 844.455 619.714 840.501 702.959 822.42 704.13 796.845 Z" fill-opacity="1" fill="url(#linear-gradient-12)" stroke="none"/>
  <defs>
   <linearGradient id="linear-gradient-13" gradientUnits="userSpaceOnUse" x1="478.983" y1="654.588" x2="456.049" y2="984.539">
    <stop offset="0" stop-color="#a4479a" stop-opacity="1"/>
    <stop offset="0.505" stop-color="#52275f" stop-opacity="1"/>
    <stop offset="1" stop-color="#412476" stop-opacity="1"/>
   </linearGradient>
  </defs>
  <path id="Path-14" d="M451.044 791.833 C435.352 740.616 464.691 737.992 295.684 704.13 238.794 692.732 202.168 705.444 197.958 734.2 192.294 772.892 247.155 808.379 390.905 826.914 408.754 829.216 458.686 816.775 451.044 791.833 Z" fill-opacity="1" fill="url(#linear-gradient-13)" stroke="none"/>
 </g>
</svg>
