<?xml version="1.0" encoding="UTF-8"?>
<svg width="1080px" height="1080px" viewBox="0 0 1080 1080" xmlns="http://www.w3.org/2000/svg" xmlns:xlink="http://www.w3.org/1999/xlink" version="1.1">
 <!-- Generated by Pixelmator Pro 2.0 -->
 <g id="New-Group">
  <path id="Path-copy" d="M936.047 385.484 C932.372 116.058 770.947 77.563 701.161 73.137 552.283 63.694 463.479 219.106 407.545 439.028 398.321 475.292 345.696 561.853 308.167 597.128 255.523 646.611 217.42 680.354 195.238 705.541 123.752 786.708 126.01 896.661 222.341 972.053 282.315 1018.992 424.136 1016.816 574.68 935.916 773.636 829.001 938.85 590.972 936.047 385.484 Z" fill="#ff634d" fill-opacity="1" stroke="none"/>
  <g id="Legs">
   <path id="Path" d="M913.655 251.175 L985.175 226.966 C990.02 224.875 992.077 222.336 990.1 217.755 L985.742 199.618 C983.766 195.036 981.209 193.158 976.364 195.249 L904.655 228.574 Z" fill="#ff634d" fill-opacity="1" stroke="none"/>
   <path id="Path-copy-1" d="M893.353 195.74 L957.121 155.309 C961.335 152.132 962.734 149.179 959.73 145.195 L951.207 128.602 C948.204 124.618 945.276 123.398 941.062 126.574 L879.265 175.908 Z" fill="#ff634d" fill-opacity="1" stroke="none"/>
   <path id="Path-copy-2" d="M858.303 154.86 L914.688 104.643 C918.332 100.826 919.235 97.685 915.626 94.24 L904.53 79.245 C900.922 75.8 897.835 75.069 894.191 78.886 L841.191 137.569 Z" fill="#ff634d" fill-opacity="1" stroke="none"/>
   <path id="Path-copy-5" d="M924.205 453.486 L997.362 472.172 C1002.563 473.06 1005.672 472.053 1006.512 467.135 L1012.744 449.553 C1013.584 444.635 1012.464 441.667 1007.263 440.779 L928.978 429.632 Z" fill="#ff634d" fill-opacity="1" stroke="none"/>
   <path id="Path-copy-4" d="M929.253 378.104 L1004.276 386.626 C1009.55 386.796 1012.492 385.374 1012.652 380.387 L1016.426 362.119 C1016.586 357.132 1015.072 354.345 1009.798 354.175 L930.725 353.821 Z" fill="#ff634d" fill-opacity="1" stroke="none"/>
   <path id="Path-copy-3" d="M926.223 307.6 L1001.68 304.909 C1006.921 304.295 1009.62 302.453 1009.04 297.497 L1010.064 278.872 C1009.483 273.916 1007.573 271.384 1002.332 271.998 L924.079 283.368 Z" fill="#ff634d" fill-opacity="1" stroke="none"/>
   <path id="Path-copy-11" d="M855.793 642.431 L913.727 690.854 C918.036 693.899 921.275 694.332 924.155 690.258 L937.363 677.086 C940.243 673.012 940.514 669.851 936.205 666.805 L870.392 622.972 Z" fill="#ff634d" fill-opacity="1" stroke="none"/>
   <path id="Path-copy-10" d="M888.646 580.964 L957.098 612.83 C962.047 614.662 965.288 614.246 967.021 609.568 L976.391 593.438 C978.124 588.759 977.571 585.635 972.623 583.803 L897.74 558.4 Z" fill="#ff634d" fill-opacity="1" stroke="none"/>
   <path id="Path-copy-9" d="M906.274 512.242 L977.116 538.368 C982.198 539.787 985.394 539.106 986.736 534.3 L994.747 517.454 C996.089 512.649 995.281 509.581 990.199 508.162 L913.48 489.007 Z" fill="#ff634d" fill-opacity="1" stroke="none"/>
   <path id="Path-copy-8" d="M724.687 820.047 L772.178 879.609 C775.82 883.493 778.924 884.586 782.564 881.173 L798.168 870.943 C801.807 867.53 802.697 864.477 799.055 860.594 L742.9 803.92 Z" fill="#ff634d" fill-opacity="1" stroke="none"/>
   <path id="Path-copy-7" d="M768.312 763.605 L818.99 819.577 C822.837 823.189 825.985 824.066 829.4 820.429 L844.304 809.211 C847.72 805.574 848.425 802.481 844.578 798.869 L785.462 746.353 Z" fill="#ff634d" fill-opacity="1" stroke="none"/>
   <path id="Path-copy-6" d="M813.004 701.141 L864.845 756.037 C868.767 759.568 871.933 760.379 875.271 756.671 L889.936 745.143 C893.275 741.435 893.915 738.328 889.994 734.797 L829.789 683.532 Z" fill="#ff634d" fill-opacity="1" stroke="none"/>
   <path id="Path-copy-23" d="M552.694 137.046 L502.032 81.06 C498.186 77.446 495.039 76.568 491.622 80.205 L476.715 91.418 C473.298 95.054 472.592 98.147 476.438 101.76 L535.538 154.294 Z" fill="#ff634d" fill-opacity="1" stroke="none"/>
   <path id="Path-copy-22" d="M615.317 102.631 L585.804 33.132 C583.356 28.458 580.67 26.597 576.25 28.912 L558.491 34.62 C554.071 36.935 552.39 39.626 554.839 44.3 L593.456 113.303 Z" fill="#ff634d" fill-opacity="1" stroke="none"/>
   <path id="Path-copy-21" d="M673.796 85.699 L662.436 11.052 C661.222 5.917 659.082 3.448 654.226 4.595 L635.606 5.722 C630.75 6.87 628.455 9.059 629.668 14.194 L649.972 90.617 Z" fill="#ff634d" fill-opacity="1" stroke="none"/>
   <path id="Path-copy-35" d="M594.016 913.82 L630.335 980.017 C633.239 984.423 636.098 986.006 640.264 983.26 L657.362 975.804 C661.528 973.058 662.931 970.213 660.027 965.807 L614.7 901.014 Z" fill="#ff634d" fill-opacity="1" stroke="none"/>
   <path id="Path-copy-34" d="M802.387 115.011 L841.432 50.384 C843.786 45.662 843.721 42.395 839.256 40.168 L824.228 29.118 C819.763 26.891 816.598 27.105 814.244 31.827 L780.933 103.542 Z" fill="#ff634d" fill-opacity="1" stroke="none"/>
   <path id="Path-copy-33" d="M735.755 94.002 L758.533 22.014 C759.712 16.871 758.882 13.71 754.019 12.595 L736.817 5.382 C731.953 4.266 728.927 5.217 727.747 10.36 L712.208 87.892 Z" fill="#ff634d" fill-opacity="1" stroke="none"/>
   <path id="Path-copy-32" d="M306.429 992.268 L296.898 1067.169 C296.657 1072.441 298.04 1075.402 303.024 1075.629 L321.239 1079.648 C326.224 1079.875 329.031 1078.399 329.272 1073.127 L330.689 994.066 Z" fill="#ff634d" fill-opacity="1" stroke="none"/>
   <path id="Path-copy-31" d="M514.97 952.418 L546.547 1021.004 C549.134 1025.603 551.875 1027.383 556.223 1024.937 L573.804 1018.7 C578.152 1016.254 579.752 1013.514 577.165 1008.915 L536.502 941.098 Z" fill="#ff634d" fill-opacity="1" stroke="none"/>
   <path id="Path-copy-30" d="M669.831 865.115 L708.242 930.12 C711.286 934.431 714.193 935.922 718.27 933.044 L735.122 925.046 C739.198 922.169 740.51 919.281 737.467 914.97 L690.095 851.656 Z" fill="#ff634d" fill-opacity="1" stroke="none"/>
   <path id="Path-copy-29" d="M152.778 801.803 L78.766 786.859 C73.526 786.237 70.473 787.4 69.884 792.355 L64.553 810.23 C63.965 815.185 65.234 818.093 70.474 818.715 L149.223 825.869 Z" fill="#ff634d" fill-opacity="1" stroke="none"/>
   <path id="Path-copy-28" d="M182.166 915.858 L120.392 959.276 C116.334 962.649 115.077 965.666 118.267 969.502 L127.569 985.671 C130.759 989.508 133.741 990.588 137.799 987.214 L197.181 934.998 Z" fill="#ff634d" fill-opacity="1" stroke="none"/>
   <path id="Path-copy-27" d="M232.991 967.444 L188.673 1028.575 C185.932 1033.084 185.723 1036.345 189.986 1038.937 L204.036 1051.207 C208.299 1053.799 211.471 1053.852 214.213 1049.343 L253.41 980.667 Z" fill="#ff634d" fill-opacity="1" stroke="none"/>
   <path id="Path-copy-26" d="M158.183 864.065 L82.834 875.273 C77.648 876.476 75.145 878.613 76.272 883.473 L77.295 902.103 C78.422 906.964 80.617 909.265 85.803 908.062 L162.998 887.911 Z" fill="#ff634d" fill-opacity="1" stroke="none"/>
   <path id="Path-copy-25" d="M383.257 990.062 L389.856 1065.278 C390.741 1070.48 392.721 1073.08 397.64 1072.244 L416.293 1072.301 C421.212 1071.464 423.642 1069.424 422.757 1064.222 L407.345 986.665 Z" fill="#ff634d" fill-opacity="1" stroke="none"/>
   <path id="Path-copy-24" d="M452.718 980.073 L473.24 1052.736 C475.08 1057.681 477.51 1059.866 482.186 1058.126 L500.523 1054.701 C505.199 1052.96 507.205 1050.503 505.365 1045.558 L475.749 972.24 Z" fill="#ff634d" fill-opacity="1" stroke="none"/>
   <path id="Path-copy-20" d="M446.004 340.842 L375.917 312.755 C370.876 311.195 367.663 311.787 366.187 316.553 L357.711 333.17 C356.235 337.936 356.957 341.025 361.998 342.585 L438.154 363.867 Z" fill="#ff634d" fill-opacity="1" stroke="none"/>
   <path id="Path-copy-19" d="M471.671 270.303 L407.512 230.493 C402.818 228.083 399.55 228.109 397.271 232.548 L386.043 247.443 C383.764 251.882 383.94 255.049 388.634 257.459 L459.949 291.619 Z" fill="#ff634d" fill-opacity="1" stroke="none"/>
   <path id="Path-copy-18" d="M510.28 194.759 L452.303 146.387 C447.991 143.346 444.752 142.916 441.876 146.993 L428.679 160.176 C425.803 164.253 425.535 167.414 429.847 170.456 L495.698 214.231 Z" fill="#ff634d" fill-opacity="1" stroke="none"/>
   <path id="Path-copy-17" d="M328.631 584.749 L278.704 528.106 C274.906 524.443 271.77 523.524 268.306 527.115 L253.254 538.133 C249.79 541.724 249.044 544.807 252.841 548.47 L311.251 601.771 Z" fill="#ff634d" fill-opacity="1" stroke="none"/>
   <path id="Path-copy-16" d="M383.267 516.637 L326.743 466.574 C322.523 463.407 319.298 462.881 316.303 466.872 L302.722 479.66 C299.727 483.65 299.366 486.802 303.586 489.969 L368.117 535.67 Z" fill="#ff634d" fill-opacity="1" stroke="none"/>
   <path id="Path-copy-15" d="M426.895 435.739 L361.181 398.554 C356.394 396.335 353.13 396.493 351.032 401.02 L340.414 416.357 C338.316 420.884 338.62 424.042 343.407 426.261 L416.044 457.512 Z" fill="#ff634d" fill-opacity="1" stroke="none"/>
   <path id="Path-copy-14" d="M178.684 747.75 L112.434 710.146 C107.608 707.898 104.32 708.039 102.213 712.561 L91.538 727.865 C89.431 732.387 89.741 735.552 94.567 737.8 L167.783 769.498 Z" fill="#ff634d" fill-opacity="1" stroke="none"/>
   <path id="Path-copy-13" d="M218.423 701.693 L167.761 645.706 C163.916 642.093 160.768 641.215 157.352 644.851 L142.445 656.064 C139.028 659.7 138.322 662.793 142.167 666.406 L201.268 718.94 Z" fill="#ff634d" fill-opacity="1" stroke="none"/>
   <path id="Path-copy-12" d="M268.112 642.969 L217.45 586.983 C213.605 583.369 210.457 582.491 207.04 586.128 L192.133 597.341 C188.717 600.977 188.01 604.07 191.856 607.683 L250.957 660.217 Z" fill="#ff634d" fill-opacity="1" stroke="none"/>
  </g>
  <path id="Path-1" d="M904.433 393.856 C902.741 142.442 755.859 105.613 692.126 104.757 562.41 103.015 490.149 247.374 439.165 452.579 430.758 486.417 378.512 577.765 344.304 610.68 296.319 656.852 242.56 700.108 222.341 723.609 157.182 799.345 166.156 874.603 253.961 944.95 308.628 988.748 430.163 978.487 565.646 899.779 741.116 797.839 905.57 562.768 904.433 393.856 Z" fill="#ffffff" fill-opacity="1" stroke="none"/>
  <path id="Path-2" d="M443.682 524.854 C361.268 699.04 226.667 707.858 217.824 822.987 214.738 863.162 249.554 907.096 290.098 922.365 409.587 967.361 618.495 874.799 768.918 660.369 833.778 567.911 855.393 494.723 863.779 407.407 873.826 302.789 842.915 209.526 768.918 163.48 727.774 137.878 627.986 85.209 529.508 262.858 495.41 324.37 485.978 435.458 443.682 524.854 Z" fill="#fe968d" fill-opacity="1" stroke="none"/>
  <path id="Path-3" d="M705.678 606.163 C691.407 597.492 642.082 682.042 439.165 728.126 314.348 756.473 260.672 799.747 267.512 836.538 274.742 875.424 348.436 921.679 425.613 890.744 573.821 831.34 721.68 615.885 705.678 606.163 Z" fill="#000000" fill-opacity="0.296" stroke="none"/>
  <path id="Path-4" d="M845.71 348.684 C859.536 270.058 804.549 226.592 759.884 231.238 698.044 237.67 684.882 279.146 669.541 348.684 657.501 403.258 643.534 466.57 687.609 475.165 728.744 483.187 831.158 431.436 845.71 348.684 Z" fill="#f7ba00" fill-opacity="1" stroke="none"/>
  <path id="Path-5" d="M547.577 664.886 C593.057 601.406 610.325 476.46 547.577 475.165 485.017 473.874 460.118 527.898 430.131 615.197 414.095 661.88 352.383 741.034 398.51 764.264 426.329 778.273 489.585 745.829 547.577 664.886 Z" fill="#f7ba00" fill-opacity="1" stroke="none"/>
  <path id="Path-6" d="M665.023 384.821 C684.702 317.892 723.175 270.68 723.747 235.755 724.367 197.825 707.457 189.277 683.092 186.066 643.576 180.858 609.479 221.874 565.646 321.581 527.849 407.558 517.946 515.154 543.06 524.854 565.277 533.435 623.705 525.352 665.023 384.821 Z" fill="#ffffff" fill-opacity="0.304" stroke="none"/>
  <path id="Path-7" d="M796.021 303.512 C796.021 283.554 779.842 267.375 759.884 267.375 739.926 267.375 723.747 283.554 723.747 303.512 723.747 323.471 739.926 339.65 759.884 339.65 779.842 339.65 796.021 323.471 796.021 303.512 Z" fill="#ffffff" fill-opacity="1" stroke="none"/>
  <path id="Path-copy-1" d="M768.918 416.442 C768.918 402.72 755.508 389.876 741.815 389.339 728.521 388.817 703.456 418.041 710.195 429.993 715.53 439.455 733.259 440.628 741.815 439.028 748.78 437.724 768.918 430.163 768.918 416.442 Z" fill="#ffffff" fill-opacity="1" stroke="none"/>
  <path id="Path-copy-1-1" d="M529.508 538.405 C529.508 524.684 520.594 519.403 506.922 520.337 493.628 521.244 484.452 534.244 484.337 547.44 484.241 558.301 486.958 562.867 497.888 565.508 514.329 569.481 529.508 552.126 529.508 538.405 Z" fill="#ffffff" fill-opacity="1" stroke="none"/>
  <path id="Path-8" d="M520.474 642.3 C520.474 627.332 508.34 615.197 493.371 615.197 478.402 615.197 466.268 627.332 466.268 642.3 466.268 657.269 478.402 669.403 493.371 669.403 508.34 669.403 520.474 657.269 520.474 642.3 Z" fill="#ffffff" fill-opacity="1" stroke="none"/>
  <path id="Path-copy-2-1" d="M443.682 728.126 C443.682 715.653 433.57 705.541 421.096 705.541 408.622 705.541 398.51 715.653 398.51 728.126 398.51 740.6 408.622 750.712 421.096 750.712 433.57 750.712 443.682 740.6 443.682 728.126 Z" fill="#ffffff" fill-opacity="1" stroke="none"/>
 </g>
</svg>
