<?xml version="1.0" encoding="UTF-8"?>
<svg width="1080px" height="1080px" viewBox="0 0 1080 1080" xmlns="http://www.w3.org/2000/svg" xmlns:xlink="http://www.w3.org/1999/xlink" version="1.1">
 <!-- Generated by Pixelmator Pro 2.0 -->
 <g id="New-Group">
  <g id="New-Group-1">
   <defs>
    <radialGradient id="radial-gradient" gradientUnits="userSpaceOnUse" cx="292.061" cy="511.933" r="4.875" fx="292.061" fy="511.933">
     <stop offset="0" stop-color="#ffffff" stop-opacity="1"/>
     <stop offset="1" stop-color="#c0272d" stop-opacity="1"/>
    </radialGradient>
   </defs>
   <path id="circle18" d="M296.933 511.933 C296.933 514.625 294.751 516.807 292.06 516.807 289.369 516.807 287.187 514.625 287.187 511.933 287.187 509.242 289.369 507.06 292.06 507.06 294.751 507.06 296.933 509.242 296.933 511.933 Z" fill-opacity="1" fill="url(#radial-gradient)" stroke="none"/>
   <defs>
    <radialGradient id="radial-gradient-1" gradientUnits="userSpaceOnUse" cx="494.792" cy="731.453" r="4.874" fx="494.792" fy="731.453">
     <stop offset="0" stop-color="#ffffff" stop-opacity="1"/>
     <stop offset="1" stop-color="#c0272d" stop-opacity="1"/>
    </radialGradient>
   </defs>
   <path id="circle25" d="M499.664 731.453 C499.664 734.145 497.483 736.327 494.791 736.327 492.1 736.327 489.918 734.145 489.918 731.453 489.918 728.762 492.1 726.58 494.791 726.58 497.483 726.58 499.664 728.762 499.664 731.453 Z" fill-opacity="1" fill="url(#radial-gradient-1)" stroke="none"/>
   <defs>
    <radialGradient id="radial-gradient-2" gradientUnits="userSpaceOnUse" cx="262.869" cy="416.668" r="4.874" fx="262.869" fy="416.668">
     <stop offset="0" stop-color="#ffffff" stop-opacity="1"/>
     <stop offset="1" stop-color="#c0272d" stop-opacity="1"/>
    </radialGradient>
   </defs>
   <path id="circle32" d="M267.742 416.669 C267.742 419.36 265.56 421.542 262.869 421.542 260.177 421.542 257.996 419.36 257.996 416.669 257.996 413.977 260.177 411.796 262.869 411.796 265.56 411.796 267.742 413.977 267.742 416.669 Z" fill-opacity="1" fill="url(#radial-gradient-2)" stroke="none"/>
   <defs>
    <radialGradient id="radial-gradient-3" gradientUnits="userSpaceOnUse" cx="277.326" cy="331.336" r="4.875" fx="277.326" fy="331.336">
     <stop offset="0" stop-color="#ffffff" stop-opacity="1"/>
     <stop offset="1" stop-color="#c0272d" stop-opacity="1"/>
    </radialGradient>
   </defs>
   <path id="circle39" d="M282.2 331.336 C282.2 334.028 280.017 336.211 277.324 336.211 274.632 336.211 272.449 334.028 272.449 331.336 272.449 328.643 274.632 326.46 277.324 326.46 280.017 326.46 282.2 328.643 282.2 331.336 Z" fill-opacity="1" fill="url(#radial-gradient-3)" stroke="none"/>
   <defs>
    <radialGradient id="radial-gradient-4" gradientUnits="userSpaceOnUse" cx="296.843" cy="295.93" r="4.874" fx="296.843" fy="295.93">
     <stop offset="0" stop-color="#ffffff" stop-opacity="1"/>
     <stop offset="1" stop-color="#c0272d" stop-opacity="1"/>
    </radialGradient>
   </defs>
   <path id="circle46" d="M301.716 295.931 C301.716 298.623 299.534 300.804 296.842 300.804 294.151 300.804 291.969 298.623 291.969 295.931 291.969 293.24 294.151 291.058 296.842 291.058 299.534 291.058 301.716 293.24 301.716 295.931 Z" fill-opacity="1" fill="url(#radial-gradient-4)" stroke="none"/>
   <defs>
    <radialGradient id="radial-gradient-5" gradientUnits="userSpaceOnUse" cx="277.493" cy="453.42" r="4.876" fx="277.493" fy="453.42">
     <stop offset="0" stop-color="#ffffff" stop-opacity="1"/>
     <stop offset="1" stop-color="#c0272d" stop-opacity="1"/>
    </radialGradient>
   </defs>
   <path id="circle53" d="M282.367 453.42 C282.367 456.113 280.184 458.296 277.491 458.296 274.798 458.296 272.616 456.113 272.616 453.42 272.616 450.727 274.798 448.544 277.491 448.544 280.184 448.544 282.367 450.727 282.367 453.42 Z" fill-opacity="1" fill="url(#radial-gradient-5)" stroke="none"/>
   <defs>
    <radialGradient id="radial-gradient-6" gradientUnits="userSpaceOnUse" cx="272.451" cy="356.859" r="4.874" fx="272.451" fy="356.859">
     <stop offset="0" stop-color="#ffffff" stop-opacity="1"/>
     <stop offset="1" stop-color="#c0272d" stop-opacity="1"/>
    </radialGradient>
   </defs>
   <path id="circle60" d="M277.324 356.86 C277.324 359.551 275.143 361.733 272.451 361.733 269.76 361.733 267.578 359.551 267.578 356.86 267.578 354.169 269.76 351.987 272.451 351.987 275.143 351.987 277.324 354.169 277.324 356.86 Z" fill-opacity="1" fill="url(#radial-gradient-6)" stroke="none"/>
   <defs>
    <radialGradient id="radial-gradient-7" gradientUnits="userSpaceOnUse" cx="352.817" cy="657.259" r="4.874" fx="352.817" fy="657.259">
     <stop offset="0" stop-color="#ffffff" stop-opacity="1"/>
     <stop offset="1" stop-color="#c0272d" stop-opacity="1"/>
    </radialGradient>
   </defs>
   <path id="circle67" d="M357.691 657.258 C357.691 659.949 355.509 662.131 352.818 662.131 350.126 662.131 347.944 659.949 347.944 657.258 347.944 654.566 350.126 652.384 352.818 652.384 355.509 652.384 357.691 654.566 357.691 657.258 Z" fill-opacity="1" fill="url(#radial-gradient-7)" stroke="none"/>
   <defs>
    <radialGradient id="radial-gradient-8" gradientUnits="userSpaceOnUse" cx="423.208" cy="735.46" r="4.874" fx="423.208" fy="735.46">
     <stop offset="0" stop-color="#ffffff" stop-opacity="1"/>
     <stop offset="1" stop-color="#c0272d" stop-opacity="1"/>
    </radialGradient>
   </defs>
   <path id="circle74" d="M428.082 735.46 C428.082 738.151 425.9 740.333 423.209 740.333 420.517 740.333 418.336 738.151 418.336 735.46 418.336 732.769 420.517 730.587 423.209 730.587 425.9 730.587 428.082 732.769 428.082 735.46 Z" fill-opacity="1" fill="url(#radial-gradient-8)" stroke="none"/>
   <defs>
    <radialGradient id="radial-gradient-9" gradientUnits="userSpaceOnUse" cx="954.059" cy="527.278" r="4.874" fx="954.059" fy="527.278">
     <stop offset="0" stop-color="#ffffff" stop-opacity="1"/>
     <stop offset="1" stop-color="#c0272d" stop-opacity="1"/>
    </radialGradient>
   </defs>
   <path id="circle81" d="M958.931 527.278 C958.931 529.969 956.749 532.151 954.058 532.151 951.366 532.151 949.184 529.969 949.184 527.278 949.184 524.586 951.366 522.404 954.058 522.404 956.749 522.404 958.931 524.586 958.931 527.278 Z" fill-opacity="1" fill="url(#radial-gradient-9)" stroke="none"/>
   <defs>
    <radialGradient id="radial-gradient-10" gradientUnits="userSpaceOnUse" cx="724.05" cy="686.306" r="4.874" fx="724.05" fy="686.306">
     <stop offset="0" stop-color="#ffffff" stop-opacity="1"/>
     <stop offset="1" stop-color="#c0272d" stop-opacity="1"/>
    </radialGradient>
   </defs>
   <path id="circle88" d="M728.924 686.307 C728.924 688.998 726.743 691.18 724.051 691.18 721.36 691.18 719.178 688.998 719.178 686.307 719.178 683.615 721.36 681.433 724.051 681.433 726.743 681.433 728.924 683.615 728.924 686.307 Z" fill-opacity="1" fill="url(#radial-gradient-10)" stroke="none"/>
   <defs>
    <radialGradient id="radial-gradient-11" gradientUnits="userSpaceOnUse" cx="789.766" cy="666.851" r="4.874" fx="789.766" fy="666.851">
     <stop offset="0" stop-color="#ffffff" stop-opacity="1"/>
     <stop offset="1" stop-color="#c0272d" stop-opacity="1"/>
    </radialGradient>
   </defs>
   <path id="circle95" d="M794.64 666.851 C794.64 669.543 792.458 671.724 789.767 671.724 787.075 671.724 784.893 669.543 784.893 666.851 784.893 664.16 787.075 661.978 789.767 661.978 792.458 661.978 794.64 664.16 794.64 666.851 Z" fill-opacity="1" fill="url(#radial-gradient-11)" stroke="none"/>
   <defs>
    <radialGradient id="radial-gradient-12" gradientUnits="userSpaceOnUse" cx="852.765" cy="633.138" r="4.875" fx="852.765" fy="633.138">
     <stop offset="0" stop-color="#ffffff" stop-opacity="1"/>
     <stop offset="1" stop-color="#c0272d" stop-opacity="1"/>
    </radialGradient>
   </defs>
   <path id="circle102" d="M857.64 633.138 C857.64 635.83 855.457 638.013 852.764 638.013 850.072 638.013 847.889 635.83 847.889 633.138 847.889 630.445 850.072 628.262 852.764 628.262 855.457 628.262 857.64 630.445 857.64 633.138 Z" fill-opacity="1" fill="url(#radial-gradient-12)" stroke="none"/>
  </g>
  <g id="New-Group-2">
   <path id="path104" d="M279.258 390.504 C270.058 382.5 250.598 390.631 240.653 392.758 230.733 394.88 227.669 395.12 225.876 406.6 223.471 421.964 237.507 438.171 231.218 453.198 224.731 468.702 208.469 471.76 200 456.318 192.911 443.387 200.833 435.116 207.796 424.218 216.398 410.74 208.838 400.784 220.067 388.78 232.356 375.642 244.98 376.638 260.827 373.331 281.129 369.093 285.327 354.029 289.884 334.704 283.062 340.167 275.582 339.518 270.547 342.576 264.498 346.244 260.573 353.171 255.049 357.442 229.291 377.373 239.891 341.013 244.86 325.88 246.233 321.702 249.758 320.287 250.429 315.52 250.78 313.022 247.842 307.956 248.151 305.411 249.111 297.496 251.929 292.96 258.011 286.922 264.411 280.567 273.76 277.429 278.987 270.06 270.482 266.062 261.28 260.682 252.738 260.253 247.113 259.973 240.353 262.802 240.616 253.973 222.291 248.829 212.473 246.771 194.564 255.616 178.36 263.616 164.371 275.204 149.62 285.478 137.813 293.7 102.127 316.533 115.247 332.487 122.293 341.056 142.231 338.691 151.096 335.378 162.204 331.229 168.276 320.94 173.884 310.864 179.676 300.451 181.296 297.069 192.947 289.127 199.7 284.524 209.169 275.6 217.18 274.764 241.227 272.26 205.858 298.151 208.449 307.258 210.184 313.358 219.829 314.216 223.589 316.649 238.56 326.329 231.411 335.889 227.607 352.753 225.289 363.029 210.531 396.847 195.027 392.369 176.031 386.884 201.404 365.02 203.753 357.731 208.969 341.54 181.678 341.207 170.873 342.844 156.667 344.996 151.393 353.538 162.26 364.018 167.442 369.018 169.82 364.964 169.862 372.931 169.898 379.713 165.689 382.438 167.429 390.258 170.144 402.449 178.109 411.569 177.471 424.893 176.818 438.538 167.74 449.584 166.531 462.833 164.647 483.496 183.602 485.129 188.362 499.931 193.078 514.598 170.662 530.256 164.273 541.867 165.973 546.564 168.882 550.58 172.796 553.302 169.573 551.06 193.169 526.289 196.513 524.822 213.907 517.193 209.796 529.344 213.142 542.769 221.08 574.573 250.133 591.269 276.838 605.933 285.704 610.802 306.049 615.936 311.331 624.756 319.811 638.916 302.576 661.258 299.82 675.171 296.691 690.984 302.56 703.844 314.189 715.073 317.633 714.013 321.109 711.422 322.816 708.707 307.518 699.393 305.876 674.122 316.791 660.667 330.547 643.713 364.756 637.253 338.544 609.209 332.962 603.238 319.111 603.493 311.473 600.18 300.011 595.202 287.182 590.644 277.12 583.064 268.764 576.773 261.178 571.373 255.409 562.487 250.944 555.615 252.069 549.429 248.976 542.991 244.062 532.76 233.362 530.88 230.469 518.08 222.98 484.929 258.429 465.813 286.522 473.776 288.684 471.256 290.871 466.282 290.953 463.087 264.9 462.216 236.384 466.06 245.922 429.26 247.333 423.829 249.309 418.056 254.54 415.124 262.327 410.756 263.276 416.247 269.187 417.609 276.824 419.369 278.116 420.949 281.667 413.327 284.113 408.089 283.68 394.351 279.258 390.504 Z" fill="#6d2224" fill-opacity="1" stroke="none"/>
   <path id="path106" d="M329.6 275.433 C327.338 274.767 325.569 277.607 323.553 279.102 308.827 290.058 300.947 310.622 294.647 327.193 286.853 347.698 276.311 369.049 277.051 391.262 277.991 419.582 287.493 442.853 272.502 469.464 266.645 479.855 256.913 487.258 255.6 499.656 254.584 509.247 259.047 522.322 253.324 530.871 246.533 541.018 225.322 544.487 214.293 547.489 201.718 550.913 193.229 551.602 181.136 545.956 178.209 544.589 148.316 521.156 159.953 516.52 164.647 514.651 169.411 513.533 174.353 513.162 174.796 505.829 167.427 477.371 156.862 477.176 150.896 477.067 146.613 488.242 138.311 488.762 128.133 489.389 108.947 474.378 108.853 463.362 108.724 448.907 123.111 451.88 132.293 445.28 137.709 441.389 138.209 434.107 144.093 430.987 151.031 427.311 157.429 434.32 162.971 425.276 170.749 412.584 154.322 404.504 143.922 404.707 138.251 404.816 131.522 406.096 126.838 409.753 119.516 415.476 123.751 418.231 121.131 422.069 115.251 430.68 105.767 435.469 108.062 418.058 109.251 409.044 115.858 398.24 120.74 392.058 136.862 371.64 144.326 358.055 153.144 334.368 127.622 343.482 114.196 335.322 112.752 327.24 115.192 340.909 118.298 364.398 115.676 378.056 113.242 390.693 104.776 402.253 99.42 413.753 83.402 448.16 84.338 478.489 112.053 507.269 126.333 522.098 152.571 532.156 162.329 550.907 180.051 584.96 151.911 627.318 188.116 656.509 212.629 676.278 249.644 647.722 276.991 654.449 292.151 658.18 294.269 669.042 303.311 679.213 306.991 683.351 310.84 684.18 314.724 687.284 322.733 693.682 326.667 706.027 335.836 710.973 345.5 716.191 355.042 704.207 361.564 713.778 367.087 721.88 356.973 733.764 348.929 734.378 339.749 735.073 333.342 725.307 328.431 718.68 326.811 716.498 322.913 724.669 322.713 725.429 321.436 730.287 326.709 736.613 329.427 739.951 336.958 749.213 349.769 751.64 347.267 767.309 338.222 770.042 327.629 777.136 318.602 777.349 309.633 777.562 303.631 770.118 294.049 772.944 269.878 780.076 298.884 835.769 322.933 830.782 337.607 827.74 310.407 798.833 343.229 793.204 357.293 790.791 359.851 793.436 366.224 778.8 367.971 774.776 370.491 763.149 374.927 761.422 382.547 758.453 384.622 771.44 391.096 776.013 401.676 771.053 395.913 735.909 390.487 727.016 386.527 720.531 379.511 722.424 379.271 711.251 379.091 702.891 384.173 694.398 393.173 695.14 391.169 686.078 382.087 672.727 372.153 671.044 363.567 669.593 355.693 679.678 346.402 679.458 331.647 679.109 324.72 667.011 317.127 656.422 305.282 639.9 290.838 631.773 270.551 629.375 254.022 627.422 181.591 640.144 197.109 599.333 200.14 591.36 203.64 593.04 209.818 590.484 218.682 586.816 220.642 584.129 227.253 578.438 238.971 568.347 251.156 572.167 263.024 564.909 269.398 561.016 269.416 555.049 277.08 556.169 281.316 556.791 290.444 566.907 294.473 569.796 303.069 575.962 315.531 580.76 322.647 589.236 320.418 581.518 314.258 568.489 308.607 562.747 303.987 558.056 296.044 555.745 291.407 550.567 286.48 545.06 286.744 540.627 284.66 534.318 281.529 524.851 275.376 517.044 277.322 506.156 278.429 499.96 283.611 487.593 290.1 485.684 296.889 526.447 316.176 569.44 336.298 605.364 358.86 645.642 387.338 683.096 424.616 710.84 433.56 717.502 444.473 727.333 456.113 728.189 462.224 728.635 474.62 725.156 464.369 717.755 495.071 739.918 537.029 748.084 573.518 753.931 587.362 756.144 604.091 753.631 617.567 750.538 624.916 748.853 645.8 742.796 645.5 732.764 645.178 721.88 617.636 715.027 609.78 711.771 604.885 709.745 622.033 703.382 622.896 703.1 630.713 700.56 641.949 698.902 648.073 692.978 667.104 674.56 664.545 649.949 642.378 635.553 624.136 623.704 604.304 616.513 587.056 602.358 566.496 585.491 546.109 566.991 529.282 546.284 501.647 512.258 507.456 457.811 503.245 416.338 501.811 402.216 500.862 386.456 491.742 375.071 478.44 358.462 461.884 345.207 449.224 327.7 444.256 320.824 439.558 315.32 434.411 307.622 434.411 307.622 385.295 291.835 329.6 275.433 Z" fill="#971b1e" fill-opacity="1" stroke="none"/>
  </g>
  <path id="path108" d="M421.138 306.853 L985.704 456.089 C985.704 456.089 876.073 728.567 626.22 685.242 580.929 677.387 536.984 660.111 501.498 630.4 480.987 613.224 462.996 592.493 449.184 569.567 442.864 559.076 437.562 547.998 435.729 535.784 434.002 524.222 436.749 512.407 434.136 500.898 430.62 485.404 416.591 475.122 412.591 459.929 408.06 442.72 409.653 423.909 409.427 406.304 409.262 393.307 409.949 380.442 411.029 367.509 411.029 367.504 413.918 332.847 421.138 306.853 Z" fill="#ffc20e" fill-opacity="1" stroke="none"/>
  <path id="path110" d="M983.664 457.633 C980.76 460.538 976.589 462.451 973.018 464.344 951.009 475.984 926.958 484.258 903.231 491.553 885.453 497.022 867.429 501.707 849.251 505.651 839.173 507.836 828.751 510.56 818.482 511.582 814.724 511.956 810.696 511.076 807.211 512.718 804.387 514.047 802.662 516.951 799.698 518.236 795.696 519.969 791.373 518.538 789.307 514.333 717.136 528.991 635.978 520.856 565.522 500.944 548.8 496.218 529.316 491.302 515.482 480.349 511.907 487.744 505.46 488.878 500.36 482.747 497.769 479.631 497.309 476.402 495.756 473.118 493.68 468.727 488.871 468.191 484.878 466.304 479.044 463.547 473.307 459.98 468.151 456.102 459.04 449.258 450.533 441.576 443.069 432.96 431.211 419.273 422.144 403.242 417.327 385.747 412.429 367.949 411.973 349.084 415.424 330.98 415.673 329.673 420.756 307.924 422.153 308.296 422.613 308.418 983.664 457.633 983.664 457.633 Z" fill="#f7931d" fill-opacity="1" stroke="none"/>
  <path id="path112" d="M974.276 449.831 C973.856 449.72 969.622 453.156 969.053 453.502 950.229 465.064 927.989 472.4 907.149 479.247 890.187 484.818 872.969 489.613 855.591 493.709 837.376 498.002 817.873 503.422 799.238 504.627 802.667 512.373 786.46 515.496 789.876 506.778 783.591 506.047 774.729 507.473 768.364 508.08 759.531 508.92 750.678 509.558 741.816 510.007 723.304 510.947 704.74 511.031 686.216 510.189 646.913 508.402 607.773 502.418 569.896 491.713 559.844 488.876 549.887 485.691 540.087 482.073 534.86 480.144 520.287 477.191 517.067 472.407 519.336 475.776 517.367 482.871 511.584 481.662 502.847 479.842 508.88 472.48 506.462 467.773 504.276 463.52 491.262 458.949 486.971 456.176 475.778 448.938 465.236 440.611 456.016 430.958 441.831 416.098 431.06 398.096 425.998 378.109 421.744 361.304 421.536 343.602 424.878 326.62 425.116 325.4 429.956 305.064 431.244 305.407 431.533 305.484 973.547 449.638 974.276 449.831 Z" fill="#fff200" fill-opacity="1" stroke="none"/>
  <path id="path114" d="M580.004 351.622 C580.004 351.622 569.896 392.062 626.22 410.836 682.544 429.609 771.362 413.002 780.751 403.613 790.136 394.224 772.089 282.298 709.987 273.633 647.882 264.969 594.449 290.964 580.004 351.622 Z" fill="#ffc20e" fill-opacity="1" stroke="none"/>
  <g id="New-Group-3">
   <g id="g116">
    <path id="path118" d="M497.622 584.48 C501.684 570.091 478.556 563.549 482.231 580.484 483.842 587.924 494.709 594.791 497.622 584.48 Z" fill="#f7931d" fill-opacity="1" stroke="none"/>
    <path id="path120" d="M496.498 581.747 C498.064 574.691 485.811 568.398 488.173 579.033 489.28 584.027 494.736 589.676 496.498 581.747 Z" fill="#fff200" fill-opacity="1" stroke="none"/>
   </g>
   <g id="New-Group-4">
    <path id="path122" d="M594.567 668.969 C598.629 654.58 575.5 648.036 579.171 664.973 580.787 672.413 591.653 679.28 594.567 668.969 Z" fill="#f7931d" fill-opacity="1" stroke="none"/>
    <path id="path124" d="M590.956 663.449 C592.527 656.389 580.264 650.098 582.627 660.731 583.738 665.724 589.189 671.376 590.956 663.449 Z" fill="#fff200" fill-opacity="1" stroke="none"/>
   </g>
   <g id="New-Group-5">
    <path id="path126" d="M442.596 475.407 C446.653 461.018 423.529 454.476 427.2 471.413 428.816 478.851 439.684 485.72 442.596 475.407 Z" fill="#f7931d" fill-opacity="1" stroke="none"/>
    <path id="path128" d="M441.467 475.384 C443.038 468.327 430.78 462.033 433.142 472.669 434.253 477.662 439.704 483.311 441.467 475.384 Z" fill="#fff200" fill-opacity="1" stroke="none"/>
   </g>
   <g id="g130">
    <path id="path132" d="M660.096 608.311 C664.158 593.922 641.033 587.378 644.704 604.316 646.316 611.756 657.184 618.622 660.096 608.311 Z" fill="#f7931d" fill-opacity="1" stroke="none"/>
    <path id="path134" d="M658.971 605.578 C660.538 598.522 648.284 592.229 650.647 602.862 651.758 607.858 657.209 613.507 658.971 605.578 Z" fill="#fff200" fill-opacity="1" stroke="none"/>
   </g>
   <g id="g136">
    <path id="path138" d="M577.9 552.764 C581.962 538.375 558.833 531.836 562.509 548.771 564.12 556.211 574.987 563.076 577.9 552.764 Z" fill="#f7931d" fill-opacity="1" stroke="none"/>
    <path id="path140" d="M576.776 550.031 C578.342 542.973 566.089 536.682 568.451 547.316 569.558 552.311 575.013 557.962 576.776 550.031 Z" fill="#fff200" fill-opacity="1" stroke="none"/>
   </g>
   <g id="New-Group-6">
    <path id="path142" d="M759.329 665.413 C763.391 651.024 740.267 644.484 743.938 661.422 745.547 668.86 756.42 675.727 759.329 665.413 Z" fill="#f7931d" fill-opacity="1" stroke="none"/>
    <path id="path144" d="M753.556 662.06 C755.122 655.004 742.864 648.709 745.227 659.344 746.338 664.34 751.789 669.989 753.556 662.06 Z" fill="#fff200" fill-opacity="1" stroke="none"/>
   </g>
   <g id="New-Group-7">
    <path id="path146" d="M836.82 608.311 C840.882 593.922 817.753 587.378 821.424 604.316 823.038 611.756 833.907 618.622 836.82 608.311 Z" fill="#f7931d" fill-opacity="1" stroke="none"/>
    <path id="path148" d="M831.042 602.789 C832.613 595.731 820.356 589.44 822.718 600.073 823.824 605.067 829.28 610.718 831.042 602.789 Z" fill="#fff200" fill-opacity="1" stroke="none"/>
   </g>
   <g id="g150">
    <path id="path152" d="M743.884 560.46 C747.947 546.071 724.818 539.531 728.493 556.469 730.104 563.907 740.973 570.771 743.884 560.46 Z" fill="#f7931d" fill-opacity="1" stroke="none"/>
    <path id="path154" d="M742.76 557.729 C744.331 550.671 732.069 544.378 734.431 555.011 735.542 560.009 740.996 565.66 742.76 557.729 Z" fill="#fff200" fill-opacity="1" stroke="none"/>
   </g>
   <g id="g156">
    <path id="path158" d="M898.491 520.56 C893.304 534.582 915.844 542.931 913.522 525.758 912.5 518.213 902.209 510.509 898.491 520.56 Z" fill="#f7931d" fill-opacity="1" stroke="none"/>
    <path id="path160" d="M899.398 523.369 C897.28 530.28 908.993 537.522 907.484 526.736 906.771 521.669 901.784 515.604 899.398 523.369 Z" fill="#fff200" fill-opacity="1" stroke="none"/>
   </g>
  </g>
  <g id="New-Group-8">
   <defs>
    <radialGradient id="radial-gradient-13" gradientUnits="userSpaceOnUse" cx="528.373" cy="539.735" r="4.874" fx="528.373" fy="539.735">
     <stop offset="0" stop-color="#ffffff" stop-opacity="1"/>
     <stop offset="1" stop-color="#c0272d" stop-opacity="1"/>
    </radialGradient>
   </defs>
   <path id="circle167" d="M533.247 539.736 C533.247 542.427 531.065 544.609 528.373 544.609 525.682 544.609 523.5 542.427 523.5 539.736 523.5 537.044 525.682 534.862 528.373 534.862 531.065 534.862 533.247 537.044 533.247 539.736 Z" fill-opacity="1" fill="url(#radial-gradient-13)" stroke="none"/>
   <defs>
    <radialGradient id="radial-gradient-14" gradientUnits="userSpaceOnUse" cx="519.705" cy="629.637" r="4.874" fx="519.705" fy="629.637">
     <stop offset="0" stop-color="#ffffff" stop-opacity="1"/>
     <stop offset="1" stop-color="#c0272d" stop-opacity="1"/>
    </radialGradient>
   </defs>
   <path id="circle174" d="M524.578 629.638 C524.578 632.329 522.396 634.511 519.704 634.511 517.013 634.511 514.831 632.329 514.831 629.638 514.831 626.946 517.013 624.764 519.704 624.764 522.396 624.764 524.578 626.946 524.578 629.638 Z" fill-opacity="1" fill="url(#radial-gradient-14)" stroke="none"/>
   <defs>
    <radialGradient id="radial-gradient-15" gradientUnits="userSpaceOnUse" cx="582.531" cy="609.058" r="4.874" fx="582.531" fy="609.058">
     <stop offset="0" stop-color="#ffffff" stop-opacity="1"/>
     <stop offset="1" stop-color="#c0272d" stop-opacity="1"/>
    </radialGradient>
   </defs>
   <path id="circle181" d="M587.404 609.058 C587.404 611.749 585.223 613.931 582.531 613.931 579.84 613.931 577.658 611.749 577.658 609.058 577.658 606.366 579.84 604.184 582.531 604.184 585.223 604.184 587.404 606.366 587.404 609.058 Z" fill-opacity="1" fill="url(#radial-gradient-15)" stroke="none"/>
   <defs>
    <radialGradient id="radial-gradient-16" gradientUnits="userSpaceOnUse" cx="629.648" cy="663.446" r="4.876" fx="629.648" fy="663.446">
     <stop offset="0" stop-color="#ffffff" stop-opacity="1"/>
     <stop offset="1" stop-color="#c0272d" stop-opacity="1"/>
    </radialGradient>
   </defs>
   <path id="circle188" d="M634.524 663.447 C634.524 666.139 632.342 668.322 629.649 668.322 626.956 668.322 624.773 666.139 624.773 663.447 624.773 660.754 626.956 658.571 629.649 658.571 632.342 658.571 634.524 660.754 634.524 663.447 Z" fill-opacity="1" fill="url(#radial-gradient-16)" stroke="none"/>
   <defs>
    <radialGradient id="radial-gradient-17" gradientUnits="userSpaceOnUse" cx="793.75" cy="616.64" r="4.874" fx="793.75" fy="616.64">
     <stop offset="0" stop-color="#ffffff" stop-opacity="1"/>
     <stop offset="1" stop-color="#c0272d" stop-opacity="1"/>
    </radialGradient>
   </defs>
   <path id="circle195" d="M798.624 616.64 C798.624 619.331 796.443 621.513 793.751 621.513 791.06 621.513 788.878 619.331 788.878 616.64 788.878 613.949 791.06 611.767 793.751 611.767 796.443 611.767 798.624 613.949 798.624 616.64 Z" fill-opacity="1" fill="url(#radial-gradient-17)" stroke="none"/>
   <defs>
    <radialGradient id="radial-gradient-18" gradientUnits="userSpaceOnUse" cx="701.138" cy="565.731" r="4.874" fx="701.138" fy="565.731">
     <stop offset="0" stop-color="#ffffff" stop-opacity="1"/>
     <stop offset="1" stop-color="#c0272d" stop-opacity="1"/>
    </radialGradient>
   </defs>
   <path id="circle202" d="M706.011 565.731 C706.011 568.423 703.829 570.604 701.138 570.604 698.446 570.604 696.264 568.423 696.264 565.731 696.264 563.04 698.446 560.858 701.138 560.858 703.829 560.858 706.011 563.04 706.011 565.731 Z" fill-opacity="1" fill="url(#radial-gradient-18)" stroke="none"/>
   <defs>
    <radialGradient id="radial-gradient-19" gradientUnits="userSpaceOnUse" cx="831.663" cy="549.483" r="4.874" fx="831.663" fy="549.483">
     <stop offset="0" stop-color="#ffffff" stop-opacity="1"/>
     <stop offset="1" stop-color="#c0272d" stop-opacity="1"/>
    </radialGradient>
   </defs>
   <path id="circle209" d="M836.536 549.482 C836.536 552.174 834.354 554.356 831.662 554.356 828.971 554.356 826.789 552.174 826.789 549.482 826.789 546.791 828.971 544.609 831.662 544.609 834.354 544.609 836.536 546.791 836.536 549.482 Z" fill-opacity="1" fill="url(#radial-gradient-19)" stroke="none"/>
   <defs>
    <radialGradient id="radial-gradient-20" gradientUnits="userSpaceOnUse" cx="681.099" cy="599.309" r="4.874" fx="681.099" fy="599.309">
     <stop offset="0" stop-color="#ffffff" stop-opacity="1"/>
     <stop offset="1" stop-color="#c0272d" stop-opacity="1"/>
    </radialGradient>
   </defs>
   <path id="circle216" d="M685.971 599.309 C685.971 602 683.789 604.182 681.098 604.182 678.406 604.182 676.224 602 676.224 599.309 676.224 596.617 678.406 594.436 681.098 594.436 683.789 594.436 685.971 596.617 685.971 599.309 Z" fill-opacity="1" fill="url(#radial-gradient-20)" stroke="none"/>
   <defs>
    <radialGradient id="radial-gradient-21" gradientUnits="userSpaceOnUse" cx="706.012" cy="669.715" r="4.874" fx="706.012" fy="669.715">
     <stop offset="0" stop-color="#ffffff" stop-opacity="1"/>
     <stop offset="1" stop-color="#c0272d" stop-opacity="1"/>
    </radialGradient>
   </defs>
   <path id="circle223" d="M710.884 669.716 C710.884 672.407 708.703 674.589 706.011 674.589 703.32 674.589 701.138 672.407 701.138 669.716 701.138 667.024 703.32 664.842 706.011 664.842 708.703 664.842 710.884 667.024 710.884 669.716 Z" fill-opacity="1" fill="url(#radial-gradient-21)" stroke="none"/>
   <defs>
    <radialGradient id="radial-gradient-22" gradientUnits="userSpaceOnUse" cx="831.663" cy="572.23" r="4.874" fx="831.663" fy="572.23">
     <stop offset="0" stop-color="#ffffff" stop-opacity="1"/>
     <stop offset="1" stop-color="#c0272d" stop-opacity="1"/>
    </radialGradient>
   </defs>
   <path id="circle230" d="M836.538 572.229 C836.538 574.922 834.355 577.104 831.662 577.104 828.97 577.104 826.787 574.922 826.787 572.229 826.787 569.536 828.97 567.353 831.662 567.353 834.355 567.353 836.538 569.536 836.538 572.229 Z" fill-opacity="1" fill="url(#radial-gradient-22)" stroke="none"/>
   <defs>
    <radialGradient id="radial-gradient-23" gradientUnits="userSpaceOnUse" cx="663.768" cy="629.637" r="4.874" fx="663.768" fy="629.637">
     <stop offset="0" stop-color="#ffffff" stop-opacity="1"/>
     <stop offset="1" stop-color="#c0272d" stop-opacity="1"/>
    </radialGradient>
   </defs>
   <path id="circle237" d="M668.642 629.638 C668.642 632.329 666.46 634.511 663.769 634.511 661.077 634.511 658.896 632.329 658.896 629.638 658.896 626.946 661.077 624.764 663.769 624.764 666.46 624.764 668.642 626.946 668.642 629.638 Z" fill-opacity="1" fill="url(#radial-gradient-23)" stroke="none"/>
   <defs>
    <radialGradient id="radial-gradient-24" gradientUnits="userSpaceOnUse" cx="537.579" cy="587.393" r="4.874" fx="537.579" fy="587.393">
     <stop offset="0" stop-color="#ffffff" stop-opacity="1"/>
     <stop offset="1" stop-color="#c0272d" stop-opacity="1"/>
    </radialGradient>
   </defs>
   <path id="circle244" d="M542.451 587.393 C542.451 590.085 540.269 592.267 537.578 592.267 534.886 592.267 532.704 590.085 532.704 587.393 532.704 584.702 534.886 582.52 537.578 582.52 540.269 582.52 542.451 584.702 542.451 587.393 Z" fill-opacity="1" fill="url(#radial-gradient-24)" stroke="none"/>
   <defs>
    <radialGradient id="radial-gradient-25" gradientUnits="userSpaceOnUse" cx="784.002" cy="536.484" r="4.874" fx="784.002" fy="536.484">
     <stop offset="0" stop-color="#ffffff" stop-opacity="1"/>
     <stop offset="1" stop-color="#c0272d" stop-opacity="1"/>
    </radialGradient>
   </defs>
   <path id="circle251" d="M788.876 536.484 C788.876 539.176 786.694 541.358 784.002 541.358 781.311 541.358 779.129 539.176 779.129 536.484 779.129 533.793 781.311 531.611 784.002 531.611 786.694 531.611 788.876 533.793 788.876 536.484 Z" fill-opacity="1" fill="url(#radial-gradient-25)" stroke="none"/>
   <defs>
    <radialGradient id="radial-gradient-26" gradientUnits="userSpaceOnUse" cx="646.437" cy="546.232" r="4.874" fx="646.437" fy="546.232">
     <stop offset="0" stop-color="#ffffff" stop-opacity="1"/>
     <stop offset="1" stop-color="#c0272d" stop-opacity="1"/>
    </radialGradient>
   </defs>
   <path id="circle258" d="M651.311 546.231 C651.311 548.923 649.129 551.104 646.438 551.104 643.746 551.104 641.564 548.923 641.564 546.231 641.564 543.54 643.746 541.358 646.438 541.358 649.129 541.358 651.311 543.54 651.311 546.231 Z" fill-opacity="1" fill="url(#radial-gradient-26)" stroke="none"/>
   <defs>
    <radialGradient id="radial-gradient-27" gradientUnits="userSpaceOnUse" cx="613.403" cy="625.305" r="4.874" fx="613.403" fy="625.305">
     <stop offset="0" stop-color="#ffffff" stop-opacity="1"/>
     <stop offset="1" stop-color="#c0272d" stop-opacity="1"/>
    </radialGradient>
   </defs>
   <path id="circle265" d="M618.276 625.304 C618.276 627.996 616.094 630.178 613.402 630.178 610.711 630.178 608.529 627.996 608.529 625.304 608.529 622.613 610.711 620.431 613.402 620.431 616.094 620.431 618.276 622.613 618.276 625.304 Z" fill-opacity="1" fill="url(#radial-gradient-27)" stroke="none"/>
   <defs>
    <radialGradient id="radial-gradient-28" gradientUnits="userSpaceOnUse" cx="597.696" cy="531.069" r="4.874" fx="597.696" fy="531.069">
     <stop offset="0" stop-color="#ffffff" stop-opacity="1"/>
     <stop offset="1" stop-color="#c0272d" stop-opacity="1"/>
    </radialGradient>
   </defs>
   <path id="circle272" d="M602.569 531.069 C602.569 533.76 600.387 535.942 597.696 535.942 595.004 535.942 592.822 533.76 592.822 531.069 592.822 528.377 595.004 526.196 597.696 526.196 600.387 526.196 602.569 528.377 602.569 531.069 Z" fill-opacity="1" fill="url(#radial-gradient-28)" stroke="none"/>
   <defs>
    <radialGradient id="radial-gradient-29" gradientUnits="userSpaceOnUse" cx="339.901" cy="352.345" r="4.874" fx="339.901" fy="352.345">
     <stop offset="0" stop-color="#ffffff" stop-opacity="1"/>
     <stop offset="1" stop-color="#c0272d" stop-opacity="1"/>
    </radialGradient>
   </defs>
   <path id="circle279" d="M344.773 352.344 C344.773 355.036 342.591 357.218 339.9 357.218 337.209 357.218 335.027 355.036 335.027 352.344 335.027 349.653 337.209 347.471 339.9 347.471 342.591 347.471 344.773 349.653 344.773 352.344 Z" fill-opacity="1" fill="url(#radial-gradient-29)" stroke="none"/>
   <defs>
    <radialGradient id="radial-gradient-30" gradientUnits="userSpaceOnUse" cx="892.587" cy="516.176" r="4.874" fx="892.587" fy="516.176">
     <stop offset="0" stop-color="#ffffff" stop-opacity="1"/>
     <stop offset="1" stop-color="#c0272d" stop-opacity="1"/>
    </radialGradient>
   </defs>
   <path id="circle286" d="M897.46 516.176 C897.46 518.867 895.278 521.049 892.587 521.049 889.895 521.049 887.713 518.867 887.713 516.176 887.713 513.484 889.895 511.302 892.587 511.302 895.278 511.302 897.46 513.484 897.46 516.176 Z" fill-opacity="1" fill="url(#radial-gradient-30)" stroke="none"/>
   <defs>
    <radialGradient id="radial-gradient-31" gradientUnits="userSpaceOnUse" cx="944.31" cy="494.782" r="4.874" fx="944.31" fy="494.782">
     <stop offset="0" stop-color="#ffffff" stop-opacity="1"/>
     <stop offset="1" stop-color="#c0272d" stop-opacity="1"/>
    </radialGradient>
   </defs>
   <path id="circle293" d="M949.184 494.782 C949.184 497.474 947.003 499.656 944.311 499.656 941.62 499.656 939.438 497.474 939.438 494.782 939.438 492.091 941.62 489.909 944.311 489.909 947.003 489.909 949.184 492.091 949.184 494.782 Z" fill-opacity="1" fill="url(#radial-gradient-31)" stroke="none"/>
   <defs>
    <radialGradient id="radial-gradient-32" gradientUnits="userSpaceOnUse" cx="921.537" cy="561.612" r="4.874" fx="921.537" fy="561.612">
     <stop offset="0" stop-color="#ffffff" stop-opacity="1"/>
     <stop offset="1" stop-color="#c0272d" stop-opacity="1"/>
    </radialGradient>
   </defs>
   <path id="circle300" d="M926.411 561.611 C926.411 564.303 924.229 566.484 921.538 566.484 918.846 566.484 916.664 564.303 916.664 561.611 916.664 558.92 918.846 556.738 921.538 556.738 924.229 556.738 926.411 558.92 926.411 561.611 Z" fill-opacity="1" fill="url(#radial-gradient-32)" stroke="none"/>
   <defs>
    <radialGradient id="radial-gradient-33" gradientUnits="userSpaceOnUse" cx="671.893" cy="694.626" r="4.874" fx="671.893" fy="694.626">
     <stop offset="0" stop-color="#ffffff" stop-opacity="1"/>
     <stop offset="1" stop-color="#c0272d" stop-opacity="1"/>
    </radialGradient>
   </defs>
   <path id="circle307" d="M676.767 694.627 C676.767 697.318 674.585 699.5 671.893 699.5 669.202 699.5 667.02 697.318 667.02 694.627 667.02 691.935 669.202 689.753 671.893 689.753 674.585 689.753 676.767 691.935 676.767 694.627 Z" fill-opacity="1" fill="url(#radial-gradient-33)" stroke="none"/>
   <defs>
    <radialGradient id="radial-gradient-34" gradientUnits="userSpaceOnUse" cx="725.508" cy="618.806" r="4.874" fx="725.508" fy="618.806">
     <stop offset="0" stop-color="#ffffff" stop-opacity="1"/>
     <stop offset="1" stop-color="#c0272d" stop-opacity="1"/>
    </radialGradient>
   </defs>
   <path id="circle314" d="M730.382 618.807 C730.382 621.498 728.2 623.68 725.509 623.68 722.817 623.68 720.636 621.498 720.636 618.807 720.636 616.115 722.817 613.933 725.509 613.933 728.2 613.933 730.382 616.115 730.382 618.807 Z" fill-opacity="1" fill="url(#radial-gradient-34)" stroke="none"/>
   <defs>
    <radialGradient id="radial-gradient-35" gradientUnits="userSpaceOnUse" cx="547.249" cy="655.268" r="4.874" fx="547.249" fy="655.268">
     <stop offset="0" stop-color="#ffffff" stop-opacity="1"/>
     <stop offset="1" stop-color="#c0272d" stop-opacity="1"/>
    </radialGradient>
   </defs>
   <path id="circle321" d="M552.124 655.267 C552.124 657.959 549.942 660.142 547.249 660.142 544.556 660.142 542.373 657.959 542.373 655.267 542.373 652.574 544.556 650.391 547.249 650.391 549.942 650.391 552.124 652.574 552.124 655.267 Z" fill-opacity="1" fill="url(#radial-gradient-35)" stroke="none"/>
   <defs>
    <radialGradient id="radial-gradient-36" gradientUnits="userSpaceOnUse" cx="882.57" cy="581.979" r="4.874" fx="882.57" fy="581.979">
     <stop offset="0" stop-color="#ffffff" stop-opacity="1"/>
     <stop offset="1" stop-color="#c0272d" stop-opacity="1"/>
    </radialGradient>
   </defs>
   <path id="circle328" d="M887.442 581.978 C887.442 584.669 885.26 586.851 882.569 586.851 879.877 586.851 877.696 584.669 877.696 581.978 877.696 579.286 879.877 577.104 882.569 577.104 885.26 577.104 887.442 579.286 887.442 581.978 Z" fill-opacity="1" fill="url(#radial-gradient-36)" stroke="none"/>
   <defs>
    <radialGradient id="radial-gradient-37" gradientUnits="userSpaceOnUse" cx="809.996" cy="639.385" r="4.874" fx="809.996" fy="639.385">
     <stop offset="0" stop-color="#ffffff" stop-opacity="1"/>
     <stop offset="1" stop-color="#c0272d" stop-opacity="1"/>
    </radialGradient>
   </defs>
   <path id="circle335" d="M814.869 639.385 C814.869 642.076 812.687 644.258 809.996 644.258 807.304 644.258 805.122 642.076 805.122 639.385 805.122 636.693 807.304 634.511 809.996 634.511 812.687 634.511 814.869 636.693 814.869 639.385 Z" fill-opacity="1" fill="url(#radial-gradient-37)" stroke="none"/>
   <defs>
    <radialGradient id="radial-gradient-38" gradientUnits="userSpaceOnUse" cx="772.088" cy="590.644" r="4.874" fx="772.088" fy="590.644">
     <stop offset="0" stop-color="#ffffff" stop-opacity="1"/>
     <stop offset="1" stop-color="#c0272d" stop-opacity="1"/>
    </radialGradient>
   </defs>
   <path id="circle342" d="M776.962 590.644 C776.962 593.336 774.78 595.518 772.089 595.518 769.397 595.518 767.216 593.336 767.216 590.644 767.216 587.953 769.397 585.771 772.089 585.771 774.78 585.771 776.962 587.953 776.962 590.644 Z" fill-opacity="1" fill="url(#radial-gradient-38)" stroke="none"/>
  </g>
  <defs>
   <radialGradient id="radial-gradient-39" gradientUnits="userSpaceOnUse" cx="628.024" cy="317.682" r="58.057" fx="628.024" fy="317.682">
    <stop offset="0" stop-color="#ffffff" stop-opacity="1"/>
    <stop offset="1" stop-color="#ffc20e" stop-opacity="1"/>
   </radialGradient>
  </defs>
  <path id="path349" d="M630.304 389.467 C608.624 385.951 590.556 377.791 591.607 352.896 592.34 335.387 602.158 316.024 615.004 304.691 625.1 295.78 641.858 287.164 654.822 283.789 662.887 281.689 687.249 276.731 693.338 285.976 696.471 290.736 691.667 292.098 691.667 297.107 691.676 306.507 698.493 316.929 704.093 324.782 709.258 332.036 723.42 343.811 716.884 353.476 712.582 359.833 699.953 357.74 694.344 362.342 688.324 367.273 685.156 376.811 677.713 381.616 665.036 389.804 644.749 391.809 630.304 389.467 Z" fill-opacity="1" fill="url(#radial-gradient-39)" stroke="none"/>
  <path id="path351" d="M681.133 397.422 C691.831 393.949 702.331 388.036 713.56 379.46 734.267 363.647 758.569 324.233 744.002 297.302 762.358 298.747 774.149 337.844 776.416 352.347 778.92 368.404 785.669 391.14 780.373 406.873 774.202 425.227 758.424 443.58 742.673 454.36 720.642 469.436 688.351 469.811 662.633 467.193 608.887 461.72 572.573 404.871 579.336 352.738 575.707 380.731 604.271 390.9 626.224 396.711 647.384 402.311 664.507 402.818 681.133 397.422 Z" fill="#967348" fill-opacity="0.153" stroke="none"/>
  <g id="New-Group-9">
   <path id="path355" d="M402.449 322.996 C403.224 322.036 404.056 321.111 404.942 320.231 404.069 337.382 409.047 353.769 409.167 369.653 409.258 381.62 406.947 393.533 407.418 405.504 407.542 408.667 409.231 432.013 411.66 433.613 396.027 423.304 396.971 397.302 394.273 380.904 391.32 362.784 390.013 338.336 402.449 322.996 Z" fill="#6d2224" fill-opacity="1" stroke="none"/>
   <path id="path357" d="M521.807 652.958 C529.111 669.476 539.676 685.187 556.156 691.9 566.013 695.916 574.807 700.867 585.253 703.089 589.62 704.022 611.251 711.098 613.609 709.791 585.32 725.456 549.255 713.198 522.962 698.907 499.493 686.151 479.233 669.922 470.736 643.724 462.471 618.236 460.193 591.087 450.822 565.927 448.722 560.289 445.858 550.964 442.06 546.371 432.798 535.176 427.962 540.4 429.191 523.676 430.102 511.371 431.564 498.207 425.962 486.722 418.584 471.598 400.324 464.411 388.64 453 383.964 448.427 379.522 445.027 375.707 439.871 363.589 423.493 358.524 398.293 359.642 378.342 360.036 371.302 361.618 352.884 371.38 352.558 381.74 352.211 386.724 377.593 389.844 385.216 398.391 406.104 408.078 430.209 423.204 447.338 437.327 463.324 456.296 474.391 474.316 485.351 484.767 491.702 493.547 495.636 496.729 507.402 502.411 528.427 501.133 553.131 504.547 575.531 508.502 601.54 511.047 628.635 521.807 652.958 Z" fill="#c0272d" fill-opacity="1" stroke="none"/>
   <path id="path359" d="M346.396 311.373 C327.393 333.729 320.533 357.673 321.727 386.618 322.396 402.8 325.54 437.973 346.398 441.427 357.549 443.271 363.556 428.687 362.371 419.518 359.211 395.1 352.689 372.496 354.827 347.66 355.722 337.24 363.747 324.18 362.642 314.429 361.309 302.676 353.173 303.4 346.396 311.373 Z" fill="#6d2224" fill-opacity="1" stroke="none"/>
   <path id="path361" d="M313.904 467.16 C303.451 443.929 296.376 493.011 296.869 500.362 298.184 520.04 303.613 539.56 309.811 558.202 318.264 583.629 327.376 612.464 341.987 635.107 355.753 656.449 374.816 676.818 394.902 692.271 408.656 702.849 421.851 714.438 437.007 723.022 452.024 731.533 472.281 739.851 483.84 737.208 483.393 732.097 480.607 724.073 477.718 727.203 476.378 728.655 474.437 725.03 473.131 723.931 463.687 715.98 455.549 707.793 448.218 697.66 423.096 662.92 411.784 620.027 409.224 577.593 409.029 574.356 409.813 563.611 407.376 561.327 402.464 556.716 393.547 561.091 387.778 559.142 382.918 557.5 377.796 552.111 373.747 549.004 360.127 538.576 347.667 527.018 336.704 513.791 327.096 502.198 320.976 499.304 318.238 484.733 316.604 476.049 312.853 469.602 308.489 461.747" fill="#c0272d" fill-opacity="1" stroke="none"/>
  </g>
  <g id="New-Group-10">
   <defs>
    <radialGradient id="radial-gradient-40" gradientUnits="userSpaceOnUse" cx="331.055" cy="592.81" r="4.874" fx="331.055" fy="592.81">
     <stop offset="0" stop-color="#ffffff" stop-opacity="1"/>
     <stop offset="1" stop-color="#c0272d" stop-opacity="1"/>
    </radialGradient>
   </defs>
   <path id="circle368" d="M335.929 592.809 C335.929 595.5 333.747 597.682 331.056 597.682 328.364 597.682 326.182 595.5 326.182 592.809 326.182 590.117 328.364 587.936 331.056 587.936 333.747 587.936 335.929 590.117 335.929 592.809 Z" fill-opacity="1" fill="url(#radial-gradient-40)" stroke="none"/>
   <defs>
    <radialGradient id="radial-gradient-41" gradientUnits="userSpaceOnUse" cx="518.086" cy="698.906" r="4.874" fx="518.086" fy="698.906">
     <stop offset="0" stop-color="#ffffff" stop-opacity="1"/>
     <stop offset="1" stop-color="#c0272d" stop-opacity="1"/>
    </radialGradient>
   </defs>
   <path id="circle375" d="M522.96 698.907 C522.96 701.598 520.778 703.78 518.087 703.78 515.395 703.78 513.213 701.598 513.213 698.907 513.213 696.215 515.395 694.033 518.087 694.033 520.778 694.033 522.96 696.215 522.96 698.907 Z" fill-opacity="1" fill="url(#radial-gradient-41)" stroke="none"/>
   <defs>
    <radialGradient id="radial-gradient-42" gradientUnits="userSpaceOnUse" cx="592.461" cy="723.693" r="4.874" fx="592.461" fy="723.693">
     <stop offset="0" stop-color="#ffffff" stop-opacity="1"/>
     <stop offset="1" stop-color="#c0272d" stop-opacity="1"/>
    </radialGradient>
   </defs>
   <path id="circle382" d="M597.336 723.693 C597.336 726.385 595.154 728.567 592.462 728.567 589.771 728.567 587.589 726.385 587.589 723.693 587.589 721.002 589.771 718.82 592.462 718.82 595.154 718.82 597.336 721.002 597.336 723.693 Z" fill-opacity="1" fill="url(#radial-gradient-42)" stroke="none"/>
   <defs>
    <radialGradient id="radial-gradient-43" gradientUnits="userSpaceOnUse" cx="452.913" cy="523.487" r="4.874" fx="452.913" fy="523.487">
     <stop offset="0" stop-color="#ffffff" stop-opacity="1"/>
     <stop offset="1" stop-color="#c0272d" stop-opacity="1"/>
    </radialGradient>
   </defs>
   <path id="circle389" d="M457.787 523.487 C457.787 526.178 455.605 528.36 452.913 528.36 450.222 528.36 448.04 526.178 448.04 523.487 448.04 520.795 450.222 518.613 452.913 518.613 455.605 518.613 457.787 520.795 457.787 523.487 Z" fill-opacity="1" fill="url(#radial-gradient-43)" stroke="none"/>
   <defs>
    <radialGradient id="radial-gradient-44" gradientUnits="userSpaceOnUse" cx="406.698" cy="504.713" r="4.874" fx="406.698" fy="504.713">
     <stop offset="0" stop-color="#ffffff" stop-opacity="1"/>
     <stop offset="1" stop-color="#c0272d" stop-opacity="1"/>
    </radialGradient>
   </defs>
   <path id="circle396" d="M411.571 504.713 C411.571 507.405 409.389 509.587 406.698 509.587 404.006 509.587 401.824 507.405 401.824 504.713 401.824 502.022 404.006 499.84 406.698 499.84 409.389 499.84 411.571 502.022 411.571 504.713 Z" fill-opacity="1" fill="url(#radial-gradient-44)" stroke="none"/>
   <defs>
    <radialGradient id="radial-gradient-45" gradientUnits="userSpaceOnUse" cx="349.649" cy="418.42" r="4.874" fx="349.649" fy="418.42">
     <stop offset="0" stop-color="#ffffff" stop-opacity="1"/>
     <stop offset="1" stop-color="#c0272d" stop-opacity="1"/>
    </radialGradient>
   </defs>
   <path id="circle403" d="M354.524 418.418 C354.524 421.11 352.342 423.293 349.649 423.293 346.956 423.293 344.773 421.11 344.773 418.418 344.773 415.725 346.956 413.542 349.649 413.542 352.342 413.542 354.524 415.725 354.524 418.418 Z" fill-opacity="1" fill="url(#radial-gradient-45)" stroke="none"/>
   <defs>
    <radialGradient id="radial-gradient-46" gradientUnits="userSpaceOnUse" cx="583.342" cy="688.398" r="4.874" fx="583.342" fy="688.398">
     <stop offset="0" stop-color="#ffffff" stop-opacity="1"/>
     <stop offset="1" stop-color="#c0272d" stop-opacity="1"/>
    </radialGradient>
   </defs>
   <path id="circle410" d="M588.216 688.398 C588.216 691.089 586.034 693.271 583.342 693.271 580.651 693.271 578.469 691.089 578.469 688.398 578.469 685.706 580.651 683.524 583.342 683.524 586.034 683.524 588.216 685.706 588.216 688.398 Z" fill-opacity="1" fill="url(#radial-gradient-46)" stroke="none"/>
   <defs>
    <radialGradient id="radial-gradient-47" gradientUnits="userSpaceOnUse" cx="399.475" cy="309.018" r="4.874" fx="399.475" fy="309.018">
     <stop offset="0" stop-color="#ffffff" stop-opacity="1"/>
     <stop offset="1" stop-color="#c0272d" stop-opacity="1"/>
    </radialGradient>
   </defs>
   <path id="circle417" d="M404.349 309.018 C404.349 311.709 402.167 313.891 399.476 313.891 396.784 313.891 394.602 311.709 394.602 309.018 394.602 306.326 396.784 304.144 399.476 304.144 402.167 304.144 404.349 306.326 404.349 309.018 Z" fill-opacity="1" fill="url(#radial-gradient-47)" stroke="none"/>
   <defs>
    <radialGradient id="radial-gradient-48" gradientUnits="userSpaceOnUse" cx="310.244" cy="354.103" r="4.874" fx="310.244" fy="354.103">
     <stop offset="0" stop-color="#ffffff" stop-opacity="1"/>
     <stop offset="1" stop-color="#c0272d" stop-opacity="1"/>
    </radialGradient>
   </defs>
   <path id="circle424" d="M315.118 354.102 C315.118 356.794 312.936 358.976 310.244 358.976 307.553 358.976 305.371 356.794 305.371 354.102 305.371 351.411 307.553 349.229 310.244 349.229 312.936 349.229 315.118 351.411 315.118 354.102 Z" fill-opacity="1" fill="url(#radial-gradient-48)" stroke="none"/>
   <defs>
    <radialGradient id="radial-gradient-49" gradientUnits="userSpaceOnUse" cx="341.524" cy="355.594" r="4.874" fx="341.524" fy="355.594">
     <stop offset="0" stop-color="#ffffff" stop-opacity="1"/>
     <stop offset="1" stop-color="#c0272d" stop-opacity="1"/>
    </radialGradient>
   </defs>
   <path id="circle431" d="M346.398 355.593 C346.398 358.285 344.216 360.467 341.524 360.467 338.833 360.467 336.651 358.285 336.651 355.593 336.651 352.902 338.833 350.72 341.524 350.72 344.216 350.72 346.398 352.902 346.398 355.593 Z" fill-opacity="1" fill="url(#radial-gradient-49)" stroke="none"/>
   <defs>
    <radialGradient id="radial-gradient-50" gradientUnits="userSpaceOnUse" cx="332.047" cy="484.763" r="4.874" fx="332.047" fy="484.763">
     <stop offset="0" stop-color="#ffffff" stop-opacity="1"/>
     <stop offset="1" stop-color="#c0272d" stop-opacity="1"/>
    </radialGradient>
   </defs>
   <path id="circle438" d="M336.92 484.762 C336.92 487.454 334.738 489.636 332.047 489.636 329.355 489.636 327.173 487.454 327.173 484.762 327.173 482.071 329.355 479.889 332.047 479.889 334.738 479.889 336.92 482.071 336.92 484.762 Z" fill-opacity="1" fill="url(#radial-gradient-50)" stroke="none"/>
   <defs>
    <radialGradient id="radial-gradient-51" gradientUnits="userSpaceOnUse" cx="358.314" cy="506.156" r="4.874" fx="358.314" fy="506.156">
     <stop offset="0" stop-color="#ffffff" stop-opacity="1"/>
     <stop offset="1" stop-color="#c0272d" stop-opacity="1"/>
    </radialGradient>
   </defs>
   <path id="circle445" d="M363.187 506.156 C363.187 508.847 361.005 511.029 358.313 511.029 355.622 511.029 353.44 508.847 353.44 506.156 353.44 503.464 355.622 501.282 358.313 501.282 361.005 501.282 363.187 503.464 363.187 506.156 Z" fill-opacity="1" fill="url(#radial-gradient-51)" stroke="none"/>
   <defs>
    <radialGradient id="radial-gradient-52" gradientUnits="userSpaceOnUse" cx="356.147" cy="603.098" r="4.876" fx="356.147" fy="603.098">
     <stop offset="0" stop-color="#ffffff" stop-opacity="1"/>
     <stop offset="1" stop-color="#c0272d" stop-opacity="1"/>
    </radialGradient>
   </defs>
   <path id="circle452" d="M361.022 603.1 C361.022 605.793 358.839 607.976 356.147 607.976 353.454 607.976 351.271 605.793 351.271 603.1 351.271 600.407 353.454 598.224 356.147 598.224 358.839 598.224 361.022 600.407 361.022 603.1 Z" fill-opacity="1" fill="url(#radial-gradient-52)" stroke="none"/>
   <defs>
    <radialGradient id="radial-gradient-53" gradientUnits="userSpaceOnUse" cx="398.39" cy="651.302" r="4.874" fx="398.39" fy="651.302">
     <stop offset="0" stop-color="#ffffff" stop-opacity="1"/>
     <stop offset="1" stop-color="#c0272d" stop-opacity="1"/>
    </radialGradient>
   </defs>
   <path id="circle459" d="M403.264 651.302 C403.264 653.994 401.083 656.176 398.391 656.176 395.7 656.176 393.518 653.994 393.518 651.302 393.518 648.611 395.7 646.429 398.391 646.429 401.083 646.429 403.264 648.611 403.264 651.302 Z" fill-opacity="1" fill="url(#radial-gradient-53)" stroke="none"/>
   <defs>
    <radialGradient id="radial-gradient-54" gradientUnits="userSpaceOnUse" cx="551.12" cy="723.871" r="4.874" fx="551.12" fy="723.871">
     <stop offset="0" stop-color="#ffffff" stop-opacity="1"/>
     <stop offset="1" stop-color="#c0272d" stop-opacity="1"/>
    </radialGradient>
   </defs>
   <path id="circle466" d="M555.993 723.871 C555.993 726.563 553.811 728.744 551.12 728.744 548.429 728.744 546.247 726.563 546.247 723.871 546.247 721.18 548.429 718.998 551.12 718.998 553.811 718.998 555.993 721.18 555.993 723.871 Z" fill-opacity="1" fill="url(#radial-gradient-54)" stroke="none"/>
   <defs>
    <radialGradient id="radial-gradient-55" gradientUnits="userSpaceOnUse" cx="624.97" cy="735.446" r="4.874" fx="624.97" fy="735.446">
     <stop offset="0" stop-color="#ffffff" stop-opacity="1"/>
     <stop offset="1" stop-color="#c0272d" stop-opacity="1"/>
    </radialGradient>
   </defs>
   <path id="circle473" d="M629.844 735.447 C629.844 738.138 627.663 740.32 624.971 740.32 622.28 740.32 620.098 738.138 620.098 735.447 620.098 732.755 622.28 730.573 624.971 730.573 627.663 730.573 629.844 732.755 629.844 735.447 Z" fill-opacity="1" fill="url(#radial-gradient-55)" stroke="none"/>
   <defs>
    <radialGradient id="radial-gradient-56" gradientUnits="userSpaceOnUse" cx="467.713" cy="696.792" r="4.874" fx="467.713" fy="696.792">
     <stop offset="0" stop-color="#ffffff" stop-opacity="1"/>
     <stop offset="1" stop-color="#c0272d" stop-opacity="1"/>
    </radialGradient>
   </defs>
   <path id="circle480" d="M472.587 696.791 C472.587 699.483 470.405 701.664 467.713 701.664 465.022 701.664 462.84 699.483 462.84 696.791 462.84 694.1 465.022 691.918 467.713 691.918 470.405 691.918 472.587 694.1 472.587 696.791 Z" fill-opacity="1" fill="url(#radial-gradient-56)" stroke="none"/>
   <defs>
    <radialGradient id="radial-gradient-57" gradientUnits="userSpaceOnUse" cx="574.948" cy="736.328" r="4.874" fx="574.948" fy="736.328">
     <stop offset="0" stop-color="#ffffff" stop-opacity="1"/>
     <stop offset="1" stop-color="#c0272d" stop-opacity="1"/>
    </radialGradient>
   </defs>
   <path id="circle487" d="M579.822 736.327 C579.822 739.018 577.64 741.2 574.949 741.2 572.257 741.2 570.076 739.018 570.076 736.327 570.076 733.635 572.257 731.453 574.949 731.453 577.64 731.453 579.822 733.635 579.822 736.327 Z" fill-opacity="1" fill="url(#radial-gradient-57)" stroke="none"/>
   <defs>
    <radialGradient id="radial-gradient-58" gradientUnits="userSpaceOnUse" cx="564.484" cy="685.889" r="4.874" fx="564.484" fy="685.889">
     <stop offset="0" stop-color="#ffffff" stop-opacity="1"/>
     <stop offset="1" stop-color="#c0272d" stop-opacity="1"/>
    </radialGradient>
   </defs>
   <path id="circle494" d="M569.358 685.889 C569.358 688.58 567.176 690.762 564.484 690.762 561.793 690.762 559.611 688.58 559.611 685.889 559.611 683.197 561.793 681.016 564.484 681.016 567.176 681.016 569.358 683.197 569.358 685.889 Z" fill-opacity="1" fill="url(#radial-gradient-58)" stroke="none"/>
   <defs>
    <radialGradient id="radial-gradient-59" gradientUnits="userSpaceOnUse" cx="341.526" cy="295.713" r="4.874" fx="341.526" fy="295.713">
     <stop offset="0" stop-color="#ffffff" stop-opacity="1"/>
     <stop offset="1" stop-color="#c0272d" stop-opacity="1"/>
    </radialGradient>
   </defs>
   <path id="circle501" d="M346.4 295.713 C346.4 298.405 344.218 300.587 341.527 300.587 338.835 300.587 336.653 298.405 336.653 295.713 336.653 293.022 338.835 290.84 341.527 290.84 344.218 290.84 346.4 293.022 346.4 295.713 Z" fill-opacity="1" fill="url(#radial-gradient-59)" stroke="none"/>
   <defs>
    <radialGradient id="radial-gradient-60" gradientUnits="userSpaceOnUse" cx="482.878" cy="612.306" r="4.874" fx="482.878" fy="612.306">
     <stop offset="0" stop-color="#ffffff" stop-opacity="1"/>
     <stop offset="1" stop-color="#c0272d" stop-opacity="1"/>
    </radialGradient>
   </defs>
   <path id="circle508" d="M487.751 612.307 C487.751 614.998 485.569 617.18 482.878 617.18 480.186 617.18 478.004 614.998 478.004 612.307 478.004 609.615 480.186 607.433 482.878 607.433 485.569 607.433 487.751 609.615 487.751 612.307 Z" fill-opacity="1" fill="url(#radial-gradient-60)" stroke="none"/>
   <defs>
    <radialGradient id="radial-gradient-61" gradientUnits="userSpaceOnUse" cx="507.791" cy="667.549" r="4.874" fx="507.791" fy="667.549">
     <stop offset="0" stop-color="#ffffff" stop-opacity="1"/>
     <stop offset="1" stop-color="#c0272d" stop-opacity="1"/>
    </radialGradient>
   </defs>
   <path id="circle515" d="M512.664 667.549 C512.664 670.24 510.483 672.422 507.791 672.422 505.1 672.422 502.918 670.24 502.918 667.549 502.918 664.857 505.1 662.676 507.791 662.676 510.483 662.676 512.664 664.857 512.664 667.549 Z" fill-opacity="1" fill="url(#radial-gradient-61)" stroke="none"/>
   <defs>
    <radialGradient id="radial-gradient-62" gradientUnits="userSpaceOnUse" cx="370.787" cy="458.513" r="4.875" fx="370.787" fy="458.513">
     <stop offset="0" stop-color="#ffffff" stop-opacity="1"/>
     <stop offset="1" stop-color="#c0272d" stop-opacity="1"/>
    </radialGradient>
   </defs>
   <path id="circle522" d="M375.66 458.513 C375.66 461.205 373.478 463.387 370.787 463.387 368.095 463.387 365.913 461.205 365.913 458.513 365.913 455.822 368.095 453.64 370.787 453.64 373.478 453.64 375.66 455.822 375.66 458.513 Z" fill-opacity="1" fill="url(#radial-gradient-62)" stroke="none"/>
   <defs>
    <radialGradient id="radial-gradient-63" gradientUnits="userSpaceOnUse" cx="296.967" cy="413.398" r="4.874" fx="296.967" fy="413.398">
     <stop offset="0" stop-color="#ffffff" stop-opacity="1"/>
     <stop offset="1" stop-color="#c0272d" stop-opacity="1"/>
    </radialGradient>
   </defs>
   <path id="circle529" d="M301.84 413.398 C301.84 416.089 299.658 418.271 296.967 418.271 294.275 418.271 292.093 416.089 292.093 413.398 292.093 410.706 294.275 408.524 296.967 408.524 299.658 408.524 301.84 410.706 301.84 413.398 Z" fill-opacity="1" fill="url(#radial-gradient-63)" stroke="none"/>
   <defs>
    <radialGradient id="radial-gradient-64" gradientUnits="userSpaceOnUse" cx="296.572" cy="377.259" r="4.874" fx="296.572" fy="377.259">
     <stop offset="0" stop-color="#ffffff" stop-opacity="1"/>
     <stop offset="1" stop-color="#c0272d" stop-opacity="1"/>
    </radialGradient>
   </defs>
   <path id="circle536" d="M301.444 377.258 C301.444 379.949 299.263 382.131 296.571 382.131 293.88 382.131 291.698 379.949 291.698 377.258 291.698 374.566 293.88 372.384 296.571 372.384 299.263 372.384 301.444 374.566 301.444 377.258 Z" fill-opacity="1" fill="url(#radial-gradient-64)" stroke="none"/>
   <defs>
    <radialGradient id="radial-gradient-65" gradientUnits="userSpaceOnUse" cx="375.645" cy="383.216" r="4.874" fx="375.645" fy="383.216">
     <stop offset="0" stop-color="#ffffff" stop-opacity="1"/>
     <stop offset="1" stop-color="#c0272d" stop-opacity="1"/>
    </radialGradient>
   </defs>
   <path id="circle543" d="M380.518 383.216 C380.518 385.907 378.336 388.089 375.644 388.089 372.953 388.089 370.771 385.907 370.771 383.216 370.771 380.524 372.953 378.342 375.644 378.342 378.336 378.342 380.518 380.524 380.518 383.216 Z" fill-opacity="1" fill="url(#radial-gradient-65)" stroke="none"/>
   <defs>
    <radialGradient id="radial-gradient-66" gradientUnits="userSpaceOnUse" cx="480.712" cy="554.357" r="4.874" fx="480.712" fy="554.357">
     <stop offset="0" stop-color="#ffffff" stop-opacity="1"/>
     <stop offset="1" stop-color="#c0272d" stop-opacity="1"/>
    </radialGradient>
   </defs>
   <path id="circle550" d="M485.587 554.358 C485.587 557.049 483.405 559.231 480.713 559.231 478.022 559.231 475.84 557.049 475.84 554.358 475.84 551.666 478.022 549.484 480.713 549.484 483.405 549.484 485.587 551.666 485.587 554.358 Z" fill-opacity="1" fill="url(#radial-gradient-66)" stroke="none"/>
   <defs>
    <radialGradient id="radial-gradient-67" gradientUnits="userSpaceOnUse" cx="450.382" cy="498.574" r="4.874" fx="450.382" fy="498.574">
     <stop offset="0" stop-color="#ffffff" stop-opacity="1"/>
     <stop offset="1" stop-color="#c0272d" stop-opacity="1"/>
    </radialGradient>
   </defs>
   <path id="circle557" d="M455.256 498.573 C455.256 501.265 453.074 503.447 450.382 503.447 447.691 503.447 445.509 501.265 445.509 498.573 445.509 495.882 447.691 493.7 450.382 493.7 453.074 493.7 455.256 495.882 455.256 498.573 Z" fill-opacity="1" fill="url(#radial-gradient-67)" stroke="none"/>
   <defs>
    <radialGradient id="radial-gradient-68" gradientUnits="userSpaceOnUse" cx="426.554" cy="602.558" r="4.874" fx="426.554" fy="602.558">
     <stop offset="0" stop-color="#ffffff" stop-opacity="1"/>
     <stop offset="1" stop-color="#c0272d" stop-opacity="1"/>
    </radialGradient>
   </defs>
   <path id="circle564" d="M431.427 602.558 C431.427 605.249 429.245 607.431 426.553 607.431 423.862 607.431 421.68 605.249 421.68 602.558 421.68 599.866 423.862 597.684 426.553 597.684 429.245 597.684 431.427 599.866 431.427 602.558 Z" fill-opacity="1" fill="url(#radial-gradient-68)" stroke="none"/>
   <defs>
    <radialGradient id="radial-gradient-69" gradientUnits="userSpaceOnUse" cx="375.645" cy="581.436" r="4.874" fx="375.645" fy="581.436">
     <stop offset="0" stop-color="#ffffff" stop-opacity="1"/>
     <stop offset="1" stop-color="#c0272d" stop-opacity="1"/>
    </radialGradient>
   </defs>
   <path id="circle571" d="M380.518 581.436 C380.518 584.127 378.336 586.309 375.644 586.309 372.953 586.309 370.771 584.127 370.771 581.436 370.771 578.744 372.953 576.562 375.644 576.562 378.336 576.562 380.518 578.744 380.518 581.436 Z" fill-opacity="1" fill="url(#radial-gradient-69)" stroke="none"/>
   <defs>
    <radialGradient id="radial-gradient-70" gradientUnits="userSpaceOnUse" cx="436.055" cy="570.062" r="4.874" fx="436.055" fy="570.062">
     <stop offset="0" stop-color="#ffffff" stop-opacity="1"/>
     <stop offset="1" stop-color="#c0272d" stop-opacity="1"/>
    </radialGradient>
   </defs>
   <path id="circle578" d="M440.929 570.062 C440.929 572.754 438.747 574.936 436.056 574.936 433.364 574.936 431.182 572.754 431.182 570.062 431.182 567.371 433.364 565.189 436.056 565.189 438.747 565.189 440.929 567.371 440.929 570.062 Z" fill-opacity="1" fill="url(#radial-gradient-70)" stroke="none"/>
   <defs>
    <radialGradient id="radial-gradient-71" gradientUnits="userSpaceOnUse" cx="451.468" cy="657.799" r="4.875" fx="451.468" fy="657.799">
     <stop offset="0" stop-color="#ffffff" stop-opacity="1"/>
     <stop offset="1" stop-color="#c0272d" stop-opacity="1"/>
    </radialGradient>
   </defs>
   <path id="circle585" d="M456.342 657.8 C456.342 660.493 454.159 662.676 451.467 662.676 448.774 662.676 446.591 660.493 446.591 657.8 446.591 655.107 448.774 652.924 451.467 652.924 454.159 652.924 456.342 655.107 456.342 657.8 Z" fill-opacity="1" fill="url(#radial-gradient-71)" stroke="none"/>
   <defs>
    <radialGradient id="radial-gradient-72" gradientUnits="userSpaceOnUse" cx="312.82" cy="531.61" r="4.874" fx="312.82" fy="531.61">
     <stop offset="0" stop-color="#ffffff" stop-opacity="1"/>
     <stop offset="1" stop-color="#c0272d" stop-opacity="1"/>
    </radialGradient>
   </defs>
   <path id="circle592" d="M317.693 531.609 C317.693 534.3 315.511 536.482 312.82 536.482 310.129 536.482 307.947 534.3 307.947 531.609 307.947 528.917 310.129 526.736 312.82 526.736 315.511 526.736 317.693 528.917 317.693 531.609 Z" fill-opacity="1" fill="url(#radial-gradient-72)" stroke="none"/>
  </g>
  <g id="New-Group-11">
   <path id="path594" d="M464.616 726.624 C467.876 721.812 445.436 707.724 439.7 712.469 434.093 717.1 444.04 733.167 436.771 740.333 429.144 747.847 420.918 740.047 417.827 732.591 410.729 715.456 406.329 698.047 397.58 681.576 392.422 671.865 388.176 664.007 375.862 663.193 361.676 662.256 352.329 673.822 342.309 682.713 326.969 696.329 295.727 724.307 274.911 708.733 256.276 694.793 266.1 663.047 273.773 646.153 283.873 623.92 294.44 608.102 293.324 582.853 292.984 575.156 289.744 567.62 289.74 559.967 289.736 553.64 294.2 546.584 294.064 541.247 293.798 530.391 289.507 526.351 279.302 521.584 261.918 513.476 240.887 517.182 223.604 509.118 210.391 502.953 200.358 490.484 197.324 475.904 194.836 463.931 203.047 446.456 188.613 442.538 176.076 439.133 159.507 453.447 156.449 464.276 152.384 478.662 161.702 481.604 165.551 493.084 169.778 505.707 166.264 514.08 175.978 524.649 184.611 534.047 194.216 539.102 206.269 542.26 234.364 549.613 266.607 547.427 262.891 584.762 260.729 606.478 254.616 641.811 236.2 656.207 212.7 643.709 244.46 613.495 235.18 598.556 228.898 588.436 218.576 597.702 217.433 607.253 216.093 618.473 227.276 620.664 215.987 630.4 200.493 643.762 169.858 612.298 163.676 597.113 156.927 580.54 172.656 567.142 162.432 551.016 159.796 563.054 149.249 569.689 146.773 581.262 143.669 595.791 147.76 607.009 158.291 617.76 172.024 631.784 189.473 639.271 205.951 649.104 224.249 660.027 227.502 679.891 232.942 698.964 237.273 714.16 245.033 721.851 256.522 731.451 267.847 740.922 272.591 753.778 290.318 751.056 325.516 745.656 342.858 691.22 375.649 723.847 394.422 742.527 403.707 767.502 430.884 774.816 437.156 776.504 451.418 780.047 446.371 789.976 443.524 795.578 423.047 797.749 417.911 797.493 401.733 796.704 395.967 792.393 399.504 778.253 402.351 766.86 402.009 760.88 394.058 751.169 380.74 734.911 378.689 749.016 378.893 764.82 379.167 785.88 383.96 805.016 407.058 809.473 423.664 812.676 445.436 816.564 461.311 808.124 469.136 803.967 467.636 800.651 473.378 794.527 476.998 790.664 483.318 790.652 486.451 786.944 509.085 760.162 456.854 779.543 454.962 756.129 453.999 744.199 457.802 736.682 464.616 726.624 Z" fill="#c0272d" fill-opacity="1" stroke="none"/>
   <g id="New-Group-12">
    <path id="path634" d="M188.067 359.031 C191.633 366.949 211.34 347.16 185.484 344.049 180.38 343.438 151.916 346.98 161.189 356.471 166.46 361.869 181.018 358.616 188.067 359.031 Z" fill="#f7931d" fill-opacity="1" stroke="none"/>
    <path id="path636" d="M285.331 542.493 C288.387 538.071 285.244 531.151 274.922 525.864 258.809 517.611 239.858 519.958 223.282 513.411 209.644 508.027 200.947 495.527 193.329 483.642 189.504 477.68 187.26 476.213 186.129 468.836 185.189 462.72 190.167 455.482 185.756 449.789 178.613 440.587 162.98 452.76 161.789 461.264 160.209 472.556 176.171 487.802 180.027 498.893 190.856 530.033 216.882 528.462 244.282 536.776 252.476 539.26 259.971 545.307 268.422 546.487 277.264 547.722 283.038 545.809 285.331 542.493 Z" fill="#f7931d" fill-opacity="1" stroke="none"/>
    <path id="path638" d="M163.713 280.296 C151.364 290.044 123.92 300.744 118.211 315.8 112.338 331.307 131 329.911 140.504 326.622 156.731 321.007 161.431 304.164 173.34 292.464 183.487 282.498 195.704 273.851 208.433 267.507 216.218 263.627 225.633 262.558 229.784 254.516 205.282 252.069 183.369 264.78 163.713 280.296 Z" fill="#f7931d" fill-opacity="1" stroke="none"/>
    <path id="path640" d="M146.751 420.253 C166.062 417.884 153.464 403.467 140.753 406.987 125.607 411.184 135.222 421.667 146.751 420.253 Z" fill="#f7931d" fill-opacity="1" stroke="none"/>
    <path id="path697" d="M400.907 333.029 C394.044 366.138 394.929 412.053 421.138 437.24 425.26 441.2 443.069 421.669 443.069 421.669 L453.767 432.367 431.969 449.829 C431.969 449.829 469.878 485.573 513.207 502.904 513.207 502.904 489.918 620.431 551.12 681.631 561.94 692.447 580.696 697.4 595.3 699.618 603.496 700.865 613.16 701.887 621.247 699.4 629.171 696.96 634.884 687.143 643.164 687.86 646.695 688.166 651.645 688.627 655.992 688.824 635.068 724.228 565.738 715.716 540.989 691.198 503.393 653.956 496.604 590.524 493.711 540.818 493.711 540.818 494.313 523.004 498.042 507.24 498.042 507.24 454.718 489.909 422.222 457.413 407.92 443.113 397.373 425.24 391.24 406.004 387.28 393.593 389.358 361.893 375.669 356.709 363.198 351.982 363.851 360.92 363.729 371.578 363.431 398.087 370.191 426.289 387.86 446.313 393.822 453.069 433.011 482.58 427.391 490.749 418.222 504.078 386.469 465.436 381.06 459.58 376.067 454.173 364.809 435.031 355.88 447.396 352.024 452.731 356.091 459.531 359.129 465 374.513 492.691 410.016 523.416 439.522 535.131 442.136 536.169 448.547 536.791 450.438 538.822 461.982 551.236 456.636 581.649 460.047 597.373 467.511 631.753 474.856 662.684 497.06 691.196 507.273 704.307 519.327 716.236 533.253 725.38 543.189 731.896 553.04 742.129 564.591 745.38 587.027 751.687 611.927 741.482 632.096 732.269 651.853 723.238 650.116 738.667 634.009 746.476 620.749 752.896 607.064 758.107 592.251 759.38 549.318 763.082 510.831 731 485.358 700.096 459.411 668.613 449.853 625.538 442.771 586.293 440.996 576.493 441.72 556.693 436.053 548.349 432.047 542.447 423.982 541.389 417.887 538.413 411.049 535.08 391.8 518.718 384.313 521.464 375.984 524.553 379.171 535.102 382.384 539.796 390.533 551.7 409.876 554.524 416.64 565.953 417.367 567.182 416.822 575.693 416.864 577.549 417.396 602.004 422.4 630.442 429.536 653.769 434.904 671.316 443.042 686.882 454.718 701.153 463.82 712.282 483.611 721.799 484.011 737.26 478.009 737.498 473.329 731.887 467.691 731.74 458.016 731.484 453.311 751.231 456.002 758.467 460.229 769.833 473.142 767.496 482.522 769.373 495.578 771.987 494.927 779.018 481.771 782.633 473.58 784.882 462.796 783.389 454.744 781.076 435.158 775.438 416.462 762.487 404.049 746.618 393.736 733.444 363.944 686.591 377.813 669.722 388.293 656.973 402.156 704.847 405.16 713.313 410.369 727.991 419.22 760.896 441.476 750.713 476.238 734.811 428.476 682.918 421.353 662.998 410.58 632.869 413.856 586.68 388.64 564.649 367.489 546.169 340.573 537.791 322.747 514.547 317.053 507.12 290.602 454.551 311.422 460.236 322.031 463.133 328.06 485.591 331.858 494.089 337.46 506.627 344.28 517.495 358.251 521.565 375.46 526.576 379.171 515.349 370.722 501.842 362.504 488.7 348.542 480.018 340.642 466.629 329.644 447.971 322.087 427.076 320.404 405.391 319.893 398.818 320.913 376.069 331.229 379.133 337.356 380.956 336.831 398.816 337.971 404.638 339.336 411.6 341.836 434.273 349.651 435.771 364.751 438.669 353.658 402.233 352.833 395.7 350.022 373.487 352.58 350.391 360.449 329.416 362.756 323.273 370.313 305.584 356.122 306.829 351.018 307.278 347.751 314.731 345.593 318.756 341.829 325.773 342.58 339.078 336.255 344.376 320.58 357.511 328.584 327.713 329.691 321.156 313.851 309.956 303.08 334.636 297.711 346.851 284.953 375.88 289.287 407.902 295.489 437.94 297.124 445.86 297.238 456.091 287.64 447.722 281.693 442.538 279.773 425.711 278.16 418.464 275.978 408.64 278.138 397.8 269.013 392.824 253.847 384.553 250.373 399.398 243.771 406.913 237.556 413.987 227.298 415.393 223.131 404.324 215.271 383.44 249.476 386.478 260.44 381.369 273.38 375.336 273.951 364.4 277.96 352.498 282.327 339.522 287.853 324.6 294.862 312.769 301.858 300.962 308.406 284.721 320.078 275.918 324.176 272.827 342.878 277.588 341.496 279.288 335.556 286.612 320.913 300.896 323.822 304.467 331.08 313.389 347.86 294.038 359.856 284.256 360.216 283.963 373.656 286.723 371.952 288.144 369.58 290.121 366.069 294.193 363.631 298.176 361.604 301.48 376.924 299.751 379.009 298.493 383.171 295.976 385.244 294.053 387.442 292.911 389.638 291.773 427.129 303.993 426.938 304.633 425.836 308.3 424.547 311.907 422.189 314.589 414.593 306.487 400.573 295.62 390.287 302.418 382.793 307.369 368.44 333.751 371.233 342.564 379.811 369.6 389.867 323.042 394.333 319.851 402.864 313.756 403.771 320.66 401.913 328.507 401.56 329.989 401.227 331.496 400.907 333.029 Z" fill="#f7931d" fill-opacity="1" stroke="none"/>
   </g>
  </g>
 </g>
</svg>
